<svg width="420" height="449" viewBox="0 0 420 449" fill="none" xmlns="http://www.w3.org/2000/svg">
<path d="M77.4114 352.626C48.7942 301.202 54.7254 290.674 28.5479 270.606C2.37037 250.538 -11.5894 203.42 28.5479 153.684C68.6852 103.948 23.6363 44.8424 83.963 11.1612C137.101 -18.5057 165.413 41.7985 219.829 19.1125C274.245 -3.57347 340.559 -14.0449 375.461 33.946C410.364 81.9368 385.643 128.466 405.712 176.457C425.781 224.448 426.554 278.705 396.114 306.183C356.137 342.272 328.91 345.733 305.368 376.272C264.557 429.214 113.186 416.912 77.4114 352.626Z" fill="#EBEBEB"/>
<path d="M229.373 421.294H190.234C180.678 421.294 172.932 413.548 172.932 403.992V353.735H246.675V403.992C246.675 413.548 238.929 421.294 229.373 421.294Z" fill="#455A64"/>
<path d="M246.675 391.19H172.932V394.987H246.675V391.19Z" fill="#263238"/>
<path d="M172.932 401.297V403.992C172.932 404.364 172.964 404.728 172.987 405.094H246.619C246.643 404.728 246.675 404.364 246.675 403.992V401.297H172.932Z" fill="#263238"/>
<path d="M242.54 415.201C243.516 414.055 244.336 412.778 244.99 411.404H174.619C175.273 412.778 176.093 414.055 177.07 415.201H242.54Z" fill="#263238"/>
<path d="M328.797 189.213C328.797 123.494 275.521 70.2188 209.803 70.2188C144.085 70.2188 90.8086 123.495 90.8086 189.213C90.8086 217.104 100.408 242.751 116.478 263.039L142.106 297.744C155.7 316.152 163.035 338.432 163.035 361.315V365.406C163.035 377.417 172.773 387.155 184.784 387.155H212.343H216.652H234.83C246.841 387.155 256.578 377.417 256.578 365.406V361.315C256.578 338.432 263.914 316.152 277.507 297.744L303.136 263.039L303.129 263.037C319.198 242.75 328.797 217.103 328.797 189.213Z" fill="#FFCCCC"/>
<path d="M229.912 387.154H233.802L279.48 180.806C279.914 178.837 280.134 176.82 280.134 174.808L280.129 174.668C280.104 174.341 277.393 142.017 251.262 141.026C245.676 140.812 240.468 142.75 236.074 146.588C230.242 139.969 221.73 135.381 210.268 134.855L209.217 134.859C197.829 135.565 189.347 140.1 183.502 146.564C179.114 142.741 173.92 140.822 168.34 141.025C142.211 142.016 139.499 174.339 139.474 174.666L139.469 174.807C139.469 176.822 139.69 178.84 140.125 180.805L185.801 387.152H189.69L143.831 179.984C143.462 178.313 143.27 176.597 143.265 174.884C143.403 173.354 146.222 145.663 168.483 144.819C173.797 144.608 177.957 146.696 181.118 149.502C175.555 157.149 173.107 166.775 173.42 175.891C173.799 186.887 178.244 194.548 184.236 194.548C184.253 194.548 184.269 194.548 184.285 194.548C188.133 194.522 191.251 192.549 193.305 188.846C197.944 180.483 196.215 164.725 189.451 153.723C188.419 152.045 187.3 150.522 186.102 149.161C191.069 143.533 198.503 139.325 209.332 138.652L210.178 138.65C221.005 139.147 228.413 143.511 233.352 149.324C232.209 150.643 231.137 152.109 230.147 153.72C223.383 164.724 221.654 180.482 226.293 188.845C228.347 192.548 231.466 194.521 235.313 194.547C241.399 194.618 245.661 187.06 245.96 175.814C246.201 166.711 243.795 157.154 238.419 149.557C241.587 146.724 245.757 144.612 251.116 144.819C273.518 145.668 276.175 172.945 276.334 174.88C276.328 176.592 276.138 178.309 275.768 179.984L229.912 387.154ZM186.22 155.711C192.239 165.505 193.965 179.836 189.988 187.006C188.619 189.474 186.692 190.735 184.262 190.751C184.255 190.751 184.248 190.751 184.241 190.751C180.59 190.751 177.507 184.175 177.217 175.761C176.986 169.043 178.549 159.807 183.731 152.219C184.689 153.375 185.517 154.566 186.22 155.711ZM242.167 175.716C241.945 184.157 238.957 190.753 235.364 190.753C235.357 190.753 235.35 190.753 235.344 190.753C232.913 190.736 230.988 189.475 229.618 187.007C225.64 179.837 227.366 165.505 233.386 155.711C234.046 154.64 234.811 153.528 235.69 152.443C240.767 160.141 242.334 169.41 242.167 175.716Z" fill="#FF8282"/>
<path d="M209.802 60.3121C208.405 60.3121 207.271 59.1787 207.271 57.7812V36.613C207.271 35.2155 208.405 34.082 209.802 34.082C211.2 34.082 212.333 35.2155 212.333 36.613V57.7812C212.333 59.1787 211.2 60.3121 209.802 60.3121Z" fill="#263238"/>
<path d="M365.42 200.289H344.252C342.854 200.289 341.721 199.156 341.721 197.758C341.721 196.361 342.854 195.228 344.252 195.228H365.42C366.817 195.228 367.951 196.361 367.951 197.758C367.951 199.156 366.817 200.289 365.42 200.289Z" fill="#263238"/>
<path d="M75.8466 200.289H54.6794C53.2819 200.289 52.1484 199.156 52.1484 197.758C52.1484 196.361 53.2819 195.228 54.6794 195.228H75.8466C77.244 195.228 78.3775 196.361 78.3775 197.758C78.3786 199.156 77.2451 200.289 75.8466 200.289Z" fill="#263238"/>
<path d="M317.382 307.621C316.735 307.621 316.087 307.374 315.593 306.88L300.624 291.911C299.636 290.922 299.636 289.32 300.624 288.331C301.613 287.343 303.215 287.343 304.204 288.331L319.172 303.3C320.161 304.289 320.161 305.891 319.172 306.88C318.677 307.374 318.029 307.621 317.382 307.621Z" fill="#263238"/>
<path d="M112.623 102.863C111.976 102.863 111.328 102.616 110.834 102.122L95.8664 87.154C94.8779 86.1654 94.8779 84.563 95.8664 83.5744C96.8539 82.5859 98.4585 82.5859 99.446 83.5744L114.414 98.542C115.402 99.5306 115.402 101.133 114.414 102.122C113.919 102.615 113.271 102.863 112.623 102.863Z" fill="#263238"/>
<path d="M302.413 102.863C301.766 102.863 301.118 102.616 300.624 102.122C299.636 101.133 299.636 99.5306 300.624 98.542L315.593 83.5744C316.581 82.5859 318.184 82.5859 319.172 83.5744C320.161 84.563 320.161 86.1654 319.172 87.154L304.204 102.122C303.709 102.615 303.061 102.863 302.413 102.863Z" fill="#263238"/>
<path d="M97.6557 307.621C97.0074 307.621 96.3601 307.374 95.8664 306.88C94.8779 305.891 94.8779 304.29 95.8664 303.3L110.834 288.331C111.822 287.343 113.425 287.343 114.414 288.331C115.402 289.32 115.402 290.921 114.414 291.911L99.446 306.88C98.9512 307.374 98.3029 307.621 97.6557 307.621Z" fill="#263238"/>
<path d="M208.864 375.851C208.864 375.851 132.301 367.031 128.011 441.747C127.802 445.369 130.708 448.418 134.335 448.418H208.864H283.393C287.02 448.418 289.925 445.369 289.717 441.747C285.427 367.033 208.864 375.851 208.864 375.851Z" fill="#FF8282"/>
<path d="M161.23 448.419V409.461L148.166 448.419H161.23Z" fill="#FF5353"/>
<path d="M256.498 448.419V409.461L269.562 448.419H256.498Z" fill="#FF5353"/>
<path d="M182.547 328.797V378.63C182.547 393.164 194.329 401.149 208.863 401.149C223.397 401.149 235.179 393.164 235.179 378.63V328.797H182.547Z" fill="#FFBE9D"/>
<path d="M235.179 350.213L182.547 351.728V365.556C187.492 369.713 196.419 375.35 208.863 375.853C219.922 376.299 229.153 370.258 235.179 364.799V350.213Z" fill="#EB996E"/>
<path d="M159.806 303.237C159.806 303.237 148.686 276.918 149.056 252.451C149.426 227.984 179.082 224.648 192.057 213.898C205.031 203.147 206.514 197.216 210.221 201.294C213.928 205.371 204.66 215.38 204.66 215.38C204.66 215.38 230.609 203.888 238.022 208.707C245.436 213.526 232.461 216.121 232.461 216.121C232.461 216.121 254.703 223.437 259.522 236.646C264.342 249.854 246.548 243.183 246.548 243.183L248.031 238.363C248.031 238.363 260.694 243.183 263.074 258.011C265.454 272.839 259.522 297.764 254.704 306.431C249.885 315.098 202.806 318.805 202.806 318.805L159.806 303.237Z" fill="#263238"/>
<path d="M248.484 297.181C248.237 297.181 247.996 297.205 247.753 297.218L247.07 270.031C247.07 270.031 248.684 257.144 231.618 251.92C231.618 251.92 225.06 259.203 201.666 255.751C180.42 252.617 175.545 246.348 175.545 246.348C175.545 246.348 166.363 250.178 166.014 266.548C165.869 273.356 165.4 285.466 166.38 297.292C158.555 298.196 151.558 305.161 152.255 313.055C152.957 321.006 159.911 326.893 167.843 326.317C168.08 328.598 168.225 329.945 168.225 329.945C170.066 350.448 187.286 366.519 208.269 366.519C230.458 366.519 248.449 348.547 248.481 326.365H248.483C256.541 326.365 263.075 319.831 263.075 311.773C263.076 303.713 256.543 297.181 248.484 297.181Z" fill="#FFBE9D"/>
<path d="M227.212 254.502C228.308 254.04 229.334 253.437 230.242 252.719C231.142 251.995 231.896 251.098 232.286 250.084C232.702 249.089 232.717 247.965 232.409 246.963C232.094 245.947 231.503 244.995 230.781 244.144C229.321 242.445 227.472 241.033 225.495 239.861C223.531 238.656 221.416 237.683 219.248 236.868C214.914 235.171 210.309 234.45 205.611 234.073C200.919 233.734 196.179 233.63 191.422 233.725C196.116 232.918 200.89 232.538 205.682 232.624C210.451 232.695 215.364 233.362 219.91 235.097C222.185 235.95 224.383 237.017 226.451 238.32C228.487 239.66 230.457 241.193 231.96 243.218C232.701 244.226 233.344 245.364 233.633 246.652C233.909 247.946 233.752 249.33 233.144 250.483C232.526 251.632 231.568 252.493 230.538 253.136C229.506 253.784 228.376 254.239 227.212 254.502Z" fill="#455A64"/>
<path d="M237.988 242.733C242.054 243.399 246.126 243.952 250.166 244.181C252.177 244.25 254.213 244.293 256.088 243.905C257.008 243.713 257.917 243.429 258.513 242.938C258.815 242.7 259.017 242.422 259.14 242.111C259.196 241.971 259.241 241.76 259.288 241.531C259.327 241.311 259.359 241.089 259.378 240.865C259.568 239.063 259.002 237.176 258.135 235.449C257.28 233.697 256.075 232.093 254.783 230.562C252.136 227.535 249.017 224.862 245.753 222.349C249.411 224.244 252.908 226.564 255.868 229.559C257.354 231.046 258.679 232.728 259.728 234.623C260.743 236.517 261.462 238.722 261.268 241.042C261.242 241.328 261.195 241.615 261.139 241.899C261.079 242.173 261.019 242.467 260.885 242.804C260.626 243.447 260.174 244.006 259.663 244.394C258.63 245.182 257.495 245.481 256.413 245.673C254.232 246.003 252.121 245.903 250.045 245.657C245.894 245.167 241.877 244.114 237.988 242.733Z" fill="#455A64"/>
<path d="M233.191 207.536C229.455 208.061 225.819 208.911 222.225 209.888C218.641 210.895 215.104 212.041 211.636 213.382C209.915 214.081 208.165 214.718 206.482 215.512L203.924 216.633C203.091 217.049 202.251 217.451 201.406 217.848C199.704 218.617 198.082 219.542 196.4 220.373C194.733 221.23 193.122 222.188 191.422 223.03C192.883 221.84 194.369 220.666 195.915 219.577C197.498 218.55 199.04 217.436 200.709 216.539C203.958 214.579 207.439 213.038 210.955 211.611C214.51 210.277 218.16 209.181 221.887 208.452C225.606 207.73 229.411 207.275 233.191 207.536Z" fill="#455A64"/>
<path d="M190.357 288.138C190.357 290.17 188.709 291.818 186.677 291.818C184.646 291.818 182.998 290.17 182.998 288.138C182.998 286.107 184.646 284.459 186.677 284.459C188.709 284.459 190.357 286.107 190.357 288.138Z" fill="#263238"/>
<path d="M229.628 288.138C229.628 290.17 227.981 291.818 225.949 291.818C223.917 291.818 222.27 290.17 222.27 288.138C222.27 286.107 223.917 284.459 225.949 284.459C227.981 284.46 229.628 286.107 229.628 288.138Z" fill="#263238"/>
<path d="M178.049 290.729C177.917 288.667 178.704 286.499 180.264 284.864C181.808 283.177 184.189 282.365 186.381 282.292C188.558 282.177 190.94 282.832 192.679 284.308C194.41 285.785 195.372 287.943 195.308 290.009C194.252 288.26 192.942 286.881 191.423 286.08C189.913 285.284 188.235 284.975 186.474 285.052C184.747 285.133 183.091 285.499 181.683 286.499C180.24 287.453 179.037 288.941 178.049 290.729Z" fill="#263238"/>
<path d="M217.319 290.729C217.187 288.667 217.974 286.499 219.533 284.864C221.078 283.177 223.458 282.365 225.65 282.292C227.828 282.177 230.21 282.832 231.948 284.308C233.679 285.785 234.641 287.943 234.577 290.009C233.522 288.26 232.211 286.881 230.693 286.08C229.183 285.284 227.505 284.975 225.744 285.052C224.017 285.133 222.36 285.499 220.952 286.499C219.51 287.453 218.306 288.941 217.319 290.729Z" fill="#263238"/>
<path d="M200.213 279.496C201.792 284.126 202.691 288.99 203.087 293.887C203.303 296.337 203.349 298.801 203.293 301.267C203.217 303.729 202.989 306.183 202.776 308.597C202.664 309.799 202.548 311.001 202.545 312.154C202.536 313.297 202.664 314.437 203.143 315.142C203.582 315.855 204.587 316.187 205.701 316.289C206.771 316.395 207.812 316.223 208.686 315.639C210.457 314.467 211.384 312.1 211.808 309.812C212.261 307.477 212.225 305.028 211.761 302.634C212.634 304.927 212.877 307.443 212.712 309.933C212.601 311.18 212.349 312.43 211.871 313.635C211.409 314.837 210.645 315.999 209.523 316.837C208.409 317.693 206.92 318.042 205.573 317.931C204.917 317.897 204.233 317.793 203.542 317.541C202.857 317.298 202.157 316.829 201.694 316.18C201.221 315.54 200.985 314.813 200.861 314.137C200.736 313.456 200.703 312.8 200.695 312.159C200.684 310.875 200.791 309.647 200.888 308.425C201.401 303.569 201.749 298.802 201.605 293.964C201.459 289.143 201.073 284.301 200.213 279.496Z" fill="#263238"/>
<path d="M192.328 323.84C194.131 325.979 196.309 327.686 198.703 328.824C201.094 329.972 203.725 330.453 206.347 330.32C208.999 330.23 211.647 329.657 214.095 328.617C216.524 327.543 218.82 326.006 220.6 323.841C219.488 326.449 217.266 328.534 214.753 329.945C213.499 330.689 212.109 331.142 210.723 331.573C209.308 331.905 207.89 332.158 206.426 332.215L205.326 332.233C204.96 332.23 204.593 332.177 204.227 332.151C203.492 332.112 202.768 331.964 202.049 331.801C200.632 331.415 199.231 330.917 198 330.122C195.508 328.619 193.473 326.415 192.328 323.84Z" fill="#263238"/>
<path d="M174.416 272.8C177.163 272.028 183.109 270.674 191.76 270.416C192.711 270.389 193.266 269.327 192.721 268.548C191.561 266.887 188.897 264.778 182.932 265.316C175.8 265.959 173.612 269.183 172.953 271.344C172.684 272.228 173.527 273.05 174.416 272.8Z" fill="#263238"/>
<path d="M235.717 272.8C232.97 272.028 227.024 270.674 218.373 270.416C217.422 270.389 216.867 269.327 217.412 268.548C218.571 266.887 221.236 264.778 227.201 265.316C234.333 265.959 236.521 269.183 237.18 271.344C237.449 272.228 236.608 273.05 235.717 272.8Z" fill="#263238"/>
<path d="M166.48 322.427C163.962 322.405 161.364 321.475 159.381 319.666C157.319 317.894 156.284 315.13 156.077 312.503C155.858 309.884 156.578 306.947 158.493 304.975C160.358 302.982 162.995 302.024 165.503 301.987C163.137 302.798 160.984 304.096 159.623 305.934C158.975 306.861 158.42 307.853 158.217 308.973C158.037 309.503 158.045 310.091 157.943 310.645C157.948 311.219 157.925 311.798 157.969 312.37C158.071 313.517 158.24 314.669 158.684 315.713C158.841 316.266 159.155 316.74 159.406 317.253C159.738 317.714 160.032 318.207 160.429 318.63C161.955 320.369 164.104 321.633 166.48 322.427Z" fill="#EB996E"/>
<path d="M248.738 301.275C251.256 301.297 253.854 302.227 255.837 304.036C257.899 305.808 258.934 308.572 259.14 311.199C259.359 313.818 258.639 316.755 256.724 318.727C254.858 320.72 252.222 321.678 249.714 321.715C252.08 320.905 254.233 319.606 255.594 317.768C256.242 316.841 256.797 315.849 257 314.73C257.18 314.199 257.171 313.611 257.273 313.057C257.269 312.483 257.292 311.906 257.248 311.333C257.146 310.185 256.977 309.033 256.533 307.989C256.376 307.436 256.062 306.962 255.81 306.449C255.479 305.988 255.184 305.495 254.788 305.072C253.263 303.334 251.115 302.07 248.738 301.275Z" fill="#EB996E"/>
<path d="M365.427 350.085L365.44 350.08L355.381 321.95C354.9 320.605 353.414 319.91 352.074 320.403L330.809 328.205C329.494 328.688 328.807 330.133 329.264 331.458L336.519 352.458C334.259 352.328 331.84 352.909 329.189 356.932C328.304 358.276 327.853 359.871 328.046 361.468C328.648 366.424 333.64 369.799 338.686 368.12C341.513 367.178 343.626 364.636 344.028 361.684C344.207 360.372 344.077 359.129 343.714 358.004L343.816 357.968L335.88 335.337L352.492 329.24L358.136 344.79C355.83 344.714 353.4 345.262 350.381 351.131C349.971 351.928 349.75 352.832 349.849 353.723C350.358 358.32 354.639 361.584 359.268 360.773C362.034 360.288 364.317 358.25 365.346 355.638C366.168 353.55 366.014 351.703 365.427 350.085Z" fill="#263238"/>
<path d="M370.092 250.984L370.189 251.03L380.514 229.385L383.939 221.668V221.667L381.947 220.751C380.674 220.166 379.166 220.708 378.557 221.969L368.899 241.976H368.897C367.354 240.255 365.169 238.943 360.237 240.05C358.972 240.334 357.785 240.976 356.917 241.94C353.382 245.864 354.443 252.156 359.394 254.614C362.063 255.938 365.353 255.624 367.72 253.814C368.773 253.011 369.558 252.039 370.092 250.984Z" fill="#FF8282"/>
<path d="M151.926 41.8556L147.74 41.7386C147.214 40.0921 146.497 38.4821 145.53 36.9559C144.455 35.2589 143.164 33.7852 141.729 32.5187L143.463 28.5377C144.259 26.7077 143.422 24.5782 141.592 23.7818L136.068 21.3764C134.238 20.58 132.109 21.4172 131.312 23.2472L129.506 27.3957C127.372 27.2379 125.209 27.4021 123.09 27.9173L120.652 24.0694C119.584 22.3832 117.352 21.882 115.665 22.9499L110.576 26.1731C108.889 27.2411 108.388 29.4736 109.456 31.1599L111.894 35.0077C110.509 36.7208 109.429 38.6249 108.659 40.6427L104.136 40.5161C102.14 40.4603 100.478 42.0316 100.422 44.027L100.253 50.0494C100.198 52.0448 101.769 53.7074 103.764 53.7632L108.106 53.8845C108.637 55.7027 109.411 57.4801 110.475 59.1578C111.453 60.7023 112.618 62.0536 113.9 63.2429L112.229 67.0811C111.432 68.9111 112.269 71.0406 114.099 71.837L119.623 74.2424C121.453 75.0388 123.582 74.2016 124.379 72.3716L125.987 68.6782C128.286 68.9058 130.625 68.7533 132.915 68.1963L135.038 71.5483C136.106 73.2345 138.338 73.7358 140.025 72.6678L145.114 69.4446C146.801 68.3766 147.302 66.1441 146.234 64.4579L144.111 61.1048C145.605 59.2565 146.751 57.186 147.529 54.9889L151.556 55.1016C153.551 55.1574 155.213 53.585 155.269 51.5907L155.438 45.5683C155.494 43.574 153.921 41.9114 151.926 41.8556ZM133.624 56.9349C128.729 60.0357 122.225 58.576 119.124 53.6805C116.023 48.7851 117.483 42.2807 122.378 39.1798C127.273 36.0789 133.779 37.5387 136.88 42.4341C139.981 47.3296 138.52 53.8351 133.624 56.9349Z" fill="#FF8282"/>
<path d="M58.6443 149.689L17.3017 179.002L9.88281 168.501L51.2255 139.19C52.8 138.078 54.9768 138.452 56.0898 140.026L59.4805 144.826C60.5924 146.399 60.2178 148.577 58.6443 149.689Z" fill="#263238"/>
<path d="M11.389 169.911L9.882 168.502C9.882 168.502 8.85268 174.645 3.45703 179.243L4.19441 180.286L4.93179 181.329C11.068 177.78 17.3009 179 17.3009 179C14.8226 173.674 19.2823 169.73 19.2823 169.73C15.6426 171.949 12.941 170.989 11.389 169.911Z" fill="#FF8282"/>
<path d="M3.45807 179.243L5.74641 179.191L4.9339 181.331L1.82875 183.524C1.45201 183.791 0.930367 183.7 0.66418 183.324L0.153276 182.601C-0.112911 182.225 -0.0238237 181.703 0.35399 181.437L3.45807 179.243Z" fill="#263238"/>
<path d="M362.703 43.897C351.595 15.0179 323.275 15.8369 307.073 33.593C307.073 33.593 293.68 48.0454 303.451 62.6117C313.221 77.1779 327.231 67.3762 339.475 76.4662C351.72 85.5563 373.811 72.7761 362.703 43.897ZM346.653 71.4452C344.918 68.9658 345.521 65.5483 348.002 63.8138C350.481 62.0793 353.899 62.6825 355.633 65.163C357.369 67.6434 356.764 71.0599 354.284 72.7944C351.804 74.5289 348.388 73.9246 346.653 71.4452Z" fill="#FF8282"/>
<path d="M328.241 62.9512C328.241 65.2503 326.377 67.1136 324.078 67.1136C321.779 67.1136 319.916 65.2503 319.916 62.9512C319.916 60.6521 321.779 58.7888 324.078 58.7888C326.377 58.7888 328.241 60.6521 328.241 62.9512Z" fill="#263238"/>
<path d="M311.242 61.4381C313.541 61.4381 315.405 59.5745 315.405 57.2757C315.405 54.9769 313.541 53.1133 311.242 53.1133C308.944 53.1133 307.08 54.9769 307.08 57.2757C307.08 59.5745 308.944 61.4381 311.242 61.4381Z" fill="#263238"/>
<path d="M316.348 42.4134C316.348 44.7125 314.485 46.5758 312.186 46.5758C309.887 46.5758 308.023 44.7125 308.023 42.4134C308.023 40.1143 309.887 38.251 312.186 38.251C314.485 38.2499 316.348 40.1143 316.348 42.4134Z" fill="#263238"/>
<path d="M326.348 32.4143C326.348 34.7134 324.485 36.5767 322.186 36.5767C319.887 36.5767 318.023 34.7134 318.023 32.4143C318.023 30.1153 319.887 28.252 322.186 28.252C324.485 28.252 326.348 30.1153 326.348 32.4143Z" fill="#263238"/>
<path d="M340.188 30.7923C340.188 33.0913 338.325 34.9547 336.026 34.9547C333.727 34.9547 331.863 33.0913 331.863 30.7923C331.863 28.4932 333.727 26.6299 336.026 26.6299C338.325 26.6299 340.188 28.4932 340.188 30.7923Z" fill="#263238"/>
<path d="M69.683 288.374L30.1585 306.662C28.5722 307.396 27.9088 309.297 28.6934 310.857L56.1493 365.464C56.9157 366.988 58.7704 367.603 60.2956 366.841L100.451 346.764C102.006 345.986 102.615 344.08 101.799 342.545L73.7123 289.729C72.9416 288.28 71.1728 287.685 69.683 288.374Z" fill="#FF8282"/>
<path d="M71.149 297.606L38.0078 313.639L38.8118 315.301L71.953 299.267L71.149 297.606Z" fill="#263238"/>
<path d="M61.0657 307.175L39.8477 317.439L40.6516 319.101L61.8697 308.836L61.0657 307.175Z" fill="#263238"/>
<path d="M69.6642 307.709L41.6875 321.243L42.4915 322.905L70.4682 309.37L69.6642 307.709Z" fill="#263238"/>
<path d="M76.6685 309.013L43.5273 325.046L44.3313 326.708L77.4725 310.675L76.6685 309.013Z" fill="#263238"/>
<path d="M69.2394 317.299L45.3633 328.85L46.1673 330.511L70.0434 318.961L69.2394 317.299Z" fill="#263238"/>
<path d="M77.1568 318.161L47.2051 332.651L48.0091 334.313L77.9608 319.823L77.1568 318.161Z" fill="#263238"/>
</svg>
