<svg width="506" height="355" viewBox="0 0 506 355" fill="none" xmlns="http://www.w3.org/2000/svg">
<path d="M214.197 68.2248C197.398 7.28173 121.692 -12.3499 78.3076 33.1959C77.6845 33.8496 77.0626 34.5152 76.4396 35.1907C14.2396 102.804 43.623 269.426 173.433 311.657C303.244 353.888 438.264 276.77 445.849 207.832C453.435 138.893 393.546 117.232 300.608 136.508C248.097 147.399 224.655 106.163 214.197 68.2248Z" fill="#FFD8D8"/>
<path d="M322.18 78.6492C304.813 81.4769 299.999 96.8643 313.409 107.78C317.841 111.388 324.172 114.386 333.189 115.882C367.542 121.581 385.77 106.382 372 86.6763C363.503 74.5144 339.393 75.8468 322.18 78.6492Z" fill="#FFD8D8"/>
<path d="M53.3895 203.195C44.8607 187.803 28.7519 188.471 23.0081 204.78C21.1096 210.171 20.4264 217.141 22.0649 226.134C28.3049 260.391 48.7682 272.414 62.6637 252.798C71.2405 240.691 61.8417 218.449 53.3895 203.195Z" fill="#FFD8D8"/>
<path d="M458.092 215.843C456.491 224.219 463.408 230.152 471.245 226.924C473.835 225.857 476.448 223.8 478.772 220.184C487.627 206.41 483.142 194.595 470.814 195.808C463.204 196.557 459.676 207.543 458.092 215.843Z" fill="#FFD8D8"/>
<path d="M414.185 127.457C422.532 129.2 428.582 122.386 425.488 114.495C424.465 111.887 422.454 109.24 418.878 106.854C405.257 97.7668 393.367 102.049 394.37 114.396C394.988 122.017 405.913 125.732 414.185 127.457Z" fill="#FFD8D8"/>
<path d="M211.298 37.8279C217.907 43.2164 226.414 39.9505 227.298 31.5212C227.591 28.7351 227.023 25.4583 224.946 21.695C217.035 7.35798 204.508 5.68895 199.716 17.112C196.758 24.1641 204.748 32.4885 211.298 37.8279Z" fill="#FFD8D8"/>
<path d="M475.61 338.619C478.477 339.097 481.468 338.295 483.465 336.183C484.767 334.807 485.651 333.108 485.65 331.479C485.65 331.456 485.65 331.432 485.65 331.409C485.611 319.726 499.966 320.503 504.574 306.218C509.182 291.934 490.972 290.73 480.569 299.55C473.091 305.892 464.115 297.033 453.244 304.429C443.806 310.848 449.062 326.654 433.581 321.713C428.637 320.134 424.21 321.656 420.475 324.46C416.174 327.687 413.373 332.211 412.207 337.124L413.44 337.996C443.976 356.711 457.736 335.634 475.61 338.619Z" fill="#FFA9A9"/>
<path d="M445.354 337.995L485.836 312.009C486.378 311.662 486.535 310.939 486.187 310.398C485.84 309.856 485.117 309.7 484.576 310.047L441.038 337.995H445.354Z" fill="#FF8282"/>
<path d="M443.175 260.686C441.467 235.216 441.185 208.507 443.081 190.798C445.558 167.662 451.159 151.557 459.732 142.931C460.3 142.359 461.224 142.356 461.797 142.924C462.368 143.493 462.371 144.417 461.803 144.989C446.817 160.069 441.428 200.562 446.188 262.171L443.175 260.686Z" fill="#BB3232"/>
<path d="M447.007 170.357C447.007 170.357 434.804 170.337 435.676 148.885C435.676 148.885 454.346 154.211 447.007 170.357Z" fill="#FF8282"/>
<path d="M445.985 181.393C445.985 181.393 445.324 169.208 466.793 168.886C466.793 168.886 462.513 187.823 445.985 181.393Z" fill="#FF8282"/>
<path d="M455.315 151.302C455.315 151.302 450.631 140.034 470.763 132.572C470.763 132.572 473.043 151.854 455.315 151.302Z" fill="#FF8282"/>
<path d="M443.244 203.535C443.244 203.535 431.754 207.645 425.318 187.16C425.318 187.16 444.69 185.858 443.244 203.535Z" fill="#FF8282"/>
<path d="M443.906 214.936C443.906 214.936 441.15 203.048 462.238 199.019C462.238 199.019 461.297 218.411 443.906 214.936Z" fill="#FF8282"/>
<path d="M443.26 230.636C443.26 230.636 431.85 234.962 425.027 214.605C425.027 214.605 444.37 212.935 443.26 230.636Z" fill="#FF8282"/>
<path d="M89.15 317.452L85.8251 317.321L84.062 317.25L79.067 317.05C79.067 317.05 32.9003 238.675 61.8214 213.116C70.7251 205.248 86.2907 211.772 82.8499 247.935C79.6605 281.459 89.15 317.452 89.15 317.452Z" fill="#FF8282"/>
<path d="M85.8258 317.32L84.0628 317.249C76.0029 298.259 71.9348 277.86 69.9149 263.542C67.5168 246.54 67.4053 234.194 67.4053 234.072C67.4009 233.631 67.7562 233.271 68.1967 233.27C68.6371 233.265 68.9978 233.62 69 234.06C69.0011 234.183 69.1104 246.443 71.4986 263.345C73.5306 277.733 77.6425 298.299 85.8258 317.32Z" fill="#BB3232"/>
<path d="M98.3211 333.154L93.8058 334.83L91.41 335.719L84.6234 338.235C84.6234 338.235 -20.7374 259.232 3.66846 208.966C11.1818 193.491 35.6161 193.534 51.1685 243.775C65.5865 290.346 98.3211 333.154 98.3211 333.154Z" fill="#FFA9A9"/>
<path d="M93.8059 334.831L91.41 335.72C70.0592 314.837 53.2563 289.845 42.5797 271.838C29.9019 250.455 22.8738 234.022 22.8072 233.858C22.5558 233.271 22.8301 232.592 23.4171 232.345C24.004 232.094 24.6828 232.368 24.9309 232.953C25.0008 233.118 31.9786 249.438 44.5865 270.692C55.3188 288.786 72.2725 313.977 93.8059 334.831Z" fill="#FF8282"/>
<path d="M458.462 337.623C458.41 335.802 458.196 333.963 457.797 332.137C454.009 314.798 464.314 311.526 477.901 306.05C491.484 300.573 493.1 284.306 483.481 270.789C473.859 257.268 491.146 246.403 484.781 226.056C478.416 205.71 456.308 219.243 451.472 238.001C447.997 251.487 430.322 248.569 423.777 266.059C418.091 281.242 437.147 295.266 415.139 302.226C408.11 304.446 404.224 309.841 402.189 316.155C399.847 323.425 400.307 330.969 402.982 337.622L458.462 337.623Z" fill="#FF8282"/>
<path d="M431.544 337.623L467.794 248.135C468.137 247.288 467.727 246.322 466.879 245.979C466.032 245.636 465.065 246.045 464.722 246.894L427.97 337.623H431.544Z" fill="#BB3232"/>
<path d="M129.507 67.0786C129.507 67.0786 130.269 50.9676 120.47 47.8733C105.211 43.0542 100.964 50.9676 98.6094 56.1966C95.5916 62.8978 96.8781 76.0424 105.982 77.3114C119.572 79.2067 128.667 71.5807 129.507 67.0786Z" fill="#321212"/>
<path d="M139.343 120.955C147.273 120.955 154.123 115.398 155.747 107.636C156.916 102.045 158.059 97.0957 158.059 94.3151V94.243C158.13 93.3642 158.169 92.4854 158.176 91.6198C158.279 78.907 150.443 55.6881 122.875 59.3781C122.875 59.3781 100 61.9882 97.3966 84.3414C97.3966 84.3414 96.3123 94.654 95.592 102.121C95.5789 102.254 95.5658 102.385 95.5526 102.515C94.5471 112.385 102.309 120.953 112.229 120.953H139.343V120.955Z" fill="#321212"/>
<path d="M172.072 147.525C172.072 147.525 176.947 186.142 182.514 205.967C182.514 205.967 190.426 202.282 200.78 197.28C212.007 191.856 228.148 181.96 228.148 181.96L232.227 191.786C232.227 191.786 190.534 231.136 176.724 233.364C162.913 235.592 154.449 186.142 154.449 186.142L172.072 147.525Z" fill="#FF8282"/>
<path d="M227.292 183.112C227.292 183.112 226.147 177.625 228.602 173.912C231.057 170.199 234.795 163.247 239.183 161.796C242.856 160.582 237.438 166.78 237.276 170.713C237.276 170.713 242.738 170.027 246.677 168.747C250.142 167.622 256.998 166.217 260.178 165.592C261.049 165.42 261.608 166.519 260.937 167.1C259.853 168.04 257.587 169.222 252.902 170.351C252.902 170.351 264.322 168.189 265.507 169.938C266.692 171.687 252.364 174.128 252.364 174.128C252.364 174.128 263.481 173.47 263.77 175.215C263.946 176.276 252.429 178.708 252.429 178.708C252.429 178.708 262.94 178.99 260.397 180.649C259.657 181.132 239.31 183.422 232.226 191.786C232.226 191.786 227.461 186.861 227.292 183.112Z" fill="#FFA681"/>
<path d="M101.768 139.919C101.768 139.919 78.4436 146.799 58.3562 151.331C58.3562 151.331 57.8348 142.619 57.3091 131.132C56.7385 118.676 57.7649 99.771 57.7649 99.771L47.1812 100.857C47.1812 100.857 32.4026 156.25 37.0119 169.457C41.6222 182.665 100.162 164.164 100.162 164.164L101.768 139.919Z" fill="#FF8282"/>
<path d="M57.1585 101.072C57.1585 101.072 62.5295 99.4694 64.627 95.5434C66.7256 91.6173 72.5218 83.7115 68.9444 80.7844C67.6383 79.7155 66.6972 84.3782 63.3143 86.3916C63.3143 86.3916 61.3195 81.2621 60.5708 77.1873C59.9118 73.6033 57.8864 66.9054 56.9246 63.811C56.6611 62.964 55.4282 62.9935 55.2369 63.8602C54.9265 65.2615 54.9648 67.8169 56.201 72.4754C56.201 72.4754 52.6705 61.401 50.5676 61.1911C48.4657 60.9812 53.134 74.7455 53.134 74.7455C53.134 74.7455 48.4242 64.6538 46.753 65.2298C45.7354 65.5795 49.0745 76.8671 49.0745 76.8671C49.0745 76.8671 43.827 67.7557 43.5767 70.7812C43.5035 71.6621 51.1688 90.6489 47.1814 100.859C47.1814 100.859 53.781 102.707 57.1585 101.072Z" fill="#FFA681"/>
<path d="M171.2 297.147L171.386 297.972C153.224 310.269 85.2842 301.873 85.2842 301.873C85.4011 300.448 85.552 298.957 85.7509 297.416C85.9629 295.696 86.2264 293.917 86.528 292.077C87.3489 287.132 88.4495 281.785 89.6857 276.281C90.0836 274.549 90.4804 272.791 90.899 271.025C92.1253 265.773 93.4304 260.447 94.6655 255.259C95.0929 253.476 95.5126 251.717 95.9181 249.968C96.4843 247.54 97.0198 245.152 97.5336 242.837C98.2025 239.757 98.7993 236.798 99.2999 234.012C99.6365 232.138 99.9305 230.341 100.155 228.635C100.414 226.829 100.591 225.123 100.699 223.542C99.619 219.552 98.6124 215.642 97.6756 211.85C97.2089 209.92 96.751 208.032 96.3017 206.166C94.906 200.192 93.6796 194.508 92.6084 189.182C92.2281 187.248 91.8521 185.364 91.5111 183.528C90.323 177.248 89.3644 171.564 88.5916 166.605C88.2932 164.627 88.0123 162.783 87.7664 161.042C87.4942 159.137 87.2614 157.375 87.0581 155.777C86.1466 148.744 85.8318 144.758 85.8318 144.758C85.9914 144.629 86.1597 144.512 86.3324 144.386C88.3927 142.922 91.6149 141.545 95.1956 140.322C98.9752 139.025 103.156 137.898 106.841 137.009C107.398 136.875 107.947 136.745 108.482 136.619C113.324 135.488 116.944 134.831 116.944 134.831C133.418 138.283 138.118 136.062 138.118 136.062L146.494 138.532L147.479 138.878L153.582 141.02L153.828 141.111L164.773 144.964L172.073 147.524L169.239 160.59L168.004 166.296L164.273 183.495L163.046 189.18L159.331 206.32L158.109 211.948L155.034 226.149L155.647 228.862L156.848 234.127L158.753 242.498L160.486 250.07L161.678 255.317L165.263 271.105L166.46 276.323L170.014 291.929L171.2 297.147Z" fill="#FFA9A9"/>
<path d="M147.478 138.878C145.724 149.175 140.732 159.535 130.352 160.653C117.813 162.009 111.312 146.281 108.483 136.618C113.325 135.487 118.343 134.381 118.343 134.381C134.817 137.832 137.996 135.73 137.996 135.73L146.493 138.532L147.478 138.878Z" fill="#FFA681"/>
<path d="M129.078 152.002C115.937 152.002 112.794 135.772 112.764 135.605C112.699 135.253 112.932 134.915 113.283 134.851C113.636 134.787 113.973 135.018 114.038 135.37C114.158 136.021 117.139 151.336 129.842 150.687C140.959 150.125 141.613 137.787 141.636 137.262C141.651 136.904 141.948 136.625 142.31 136.642C142.667 136.657 142.945 136.959 142.93 137.315C142.924 137.455 142.21 151.358 129.908 151.98C129.627 151.996 129.35 152.002 129.078 152.002Z" fill="white"/>
<path d="M105.504 147.529C105.504 149.3 104.068 150.737 102.296 150.737C100.524 150.737 99.0879 149.3 99.0879 147.529C99.0879 145.757 100.524 144.321 102.296 144.321C104.068 144.321 105.504 145.757 105.504 147.529Z" fill="#FF8282"/>
<path d="M99.0781 163.179C99.0781 164.951 97.6419 166.387 95.8701 166.387C94.0983 166.387 92.6621 164.951 92.6621 163.179C92.6621 161.407 94.0983 159.971 95.8701 159.971C97.6408 159.972 99.0781 161.408 99.0781 163.179Z" fill="#FF8282"/>
<path d="M119.56 170.577C119.56 172.349 118.123 173.785 116.352 173.785C114.58 173.785 113.144 172.349 113.144 170.577C113.144 168.806 114.58 167.369 116.352 167.369C118.124 167.369 119.56 168.807 119.56 170.577Z" fill="#FF8282"/>
<path d="M105.274 179.329C105.931 180.974 105.131 182.84 103.485 183.497C101.84 184.154 99.9734 183.353 99.3165 181.708C98.6596 180.063 99.4607 178.196 101.106 177.539C102.751 176.882 104.618 177.684 105.274 179.329Z" fill="#FF8282"/>
<path d="M133.081 185.254C133.081 187.026 131.645 188.462 129.873 188.462C128.101 188.462 126.665 187.026 126.665 185.254C126.665 183.482 128.101 182.046 129.873 182.046C131.645 182.046 133.081 183.482 133.081 185.254Z" fill="#FF8282"/>
<path d="M153.541 191.864C153.541 193.636 152.105 195.072 150.333 195.072C148.561 195.072 147.125 193.636 147.125 191.864C147.125 190.092 148.561 188.656 150.333 188.656C152.105 188.656 153.541 190.092 153.541 191.864Z" fill="#FF8282"/>
<path d="M157.656 150.736C157.656 152.507 156.22 153.944 154.448 153.944C152.676 153.944 151.24 152.507 151.24 150.736C151.24 148.964 152.676 147.528 154.448 147.528C156.22 147.529 157.656 148.964 157.656 150.736Z" fill="#FF8282"/>
<path d="M134.379 205.737C134.379 207.508 132.943 208.945 131.171 208.945C129.399 208.945 127.963 207.508 127.963 205.737C127.963 203.965 129.399 202.529 131.171 202.529C132.943 202.53 134.379 203.966 134.379 205.737Z" fill="#FF8282"/>
<path d="M114.617 215.684C114.617 217.456 113.181 218.892 111.409 218.892C109.637 218.892 108.201 217.456 108.201 215.684C108.201 213.912 109.637 212.476 111.409 212.476C113.181 212.477 114.617 213.913 114.617 215.684Z" fill="#FF8282"/>
<path d="M112.315 197.571C112.315 199.342 110.879 200.779 109.107 200.779C107.336 200.779 105.899 199.342 105.899 197.571C105.899 195.799 107.336 194.363 109.107 194.363C110.879 194.363 112.315 195.799 112.315 197.571Z" fill="#FF8282"/>
<path d="M143.918 171.417C143.918 173.189 142.482 174.625 140.71 174.625C138.938 174.625 137.502 173.189 137.502 171.417C137.502 169.645 138.938 168.209 140.71 168.209C142.482 168.209 143.918 169.645 143.918 171.417Z" fill="#FF8282"/>
<path d="M161.652 167.37C161.652 169.142 160.216 170.578 158.444 170.578C156.673 170.578 155.236 169.142 155.236 167.37C155.236 165.599 156.673 164.162 158.444 164.162C160.216 164.162 161.652 165.6 161.652 167.37Z" fill="#FF8282"/>
<path d="M150.332 211.045C150.332 212.817 148.896 214.253 147.124 214.253C145.352 214.253 143.916 212.817 143.916 211.045C143.916 209.273 145.352 207.837 147.124 207.837C148.896 207.837 150.332 209.273 150.332 211.045Z" fill="#FF8282"/>
<path d="M151.192 236.425C151.192 238.197 149.756 239.633 147.984 239.633C146.213 239.633 144.776 238.197 144.776 236.425C144.776 234.653 146.213 233.217 147.984 233.217C149.757 233.217 151.192 234.653 151.192 236.425Z" fill="#FF8282"/>
<path d="M134.866 225.836C135.523 227.481 134.723 229.348 133.077 230.005C131.432 230.662 129.565 229.861 128.908 228.216C128.251 226.571 129.053 224.704 130.698 224.047C132.344 223.39 134.209 224.191 134.866 225.836Z" fill="#FF8282"/>
<path d="M113.027 235.236C113.684 236.881 112.883 238.748 111.238 239.405C109.593 240.062 107.726 239.26 107.069 237.615C106.412 235.97 107.214 234.104 108.859 233.447C110.504 232.79 112.37 233.59 113.027 235.236Z" fill="#FF8282"/>
<path d="M177.996 337.601L177.332 333.604L174.744 318.101L173.856 312.79L171.385 297.972L166.893 298.174L107.333 300.875L85.285 301.871L83.8674 313.395L83.2039 318.764L81.2463 334.685L80.8867 337.601H177.996Z" fill="#FFA9A9"/>
<path d="M177.993 337.603L177.385 333.99L177.335 333.611L176.905 331.059L176.476 328.532L174.732 318.096L174.227 315.013L173.848 312.79L173.798 312.461L171.548 298.942L171.396 297.981L171.194 297.147L171.017 296.414L170.006 291.941L168.01 283.198L167.429 280.696L166.443 276.324L165.255 271.093L164.446 267.505L163.864 265.003L161.666 255.324L160.857 251.786L160.478 250.068L160.301 249.284L158.76 242.487C134.552 249.638 108.903 245.393 97.5317 242.841C97.0267 245.14 96.4704 247.541 95.914 249.967C95.7872 250.498 95.6615 251.028 95.5347 251.559C95.3325 252.393 95.1303 253.227 94.9281 254.06C94.8527 254.465 94.7511 254.844 94.6505 255.249C93.716 259.216 92.7301 263.259 91.7693 267.277C91.5671 268.111 91.39 268.945 91.1878 269.754C91.0862 270.184 90.9856 270.588 90.8851 271.017C90.4807 272.786 90.0762 274.556 89.6718 276.274C89.1669 278.573 88.6859 280.822 88.2312 283.046C88.0542 283.88 87.8771 284.689 87.7263 285.498C87.2716 287.747 86.8672 289.945 86.513 292.068C86.2092 293.913 85.9567 295.681 85.7545 297.425C85.6791 297.955 85.6277 298.486 85.5523 298.991C85.4769 299.85 85.3752 300.684 85.2998 301.518C85.2998 301.645 85.2746 301.745 85.2746 301.872L83.8592 313.395L83.6319 315.188L83.3291 317.69L83.2023 318.751L81.636 331.36L81.3322 333.887L81.2316 334.696L80.8818 337.6H177.993V337.603Z" fill="#321212"/>
<path d="M148.696 95.7804C148.696 95.7804 152.635 90.7919 155.563 94.9169C158.491 99.0419 154.351 111.227 147.183 108.253L148.696 95.7804Z" fill="#F97853"/>
<path d="M148.746 104.488C149.011 104.488 149.254 104.321 149.329 104.067C150.439 100.306 154.541 98.7799 154.583 98.7657C154.894 98.652 155.052 98.3197 154.934 98.0235C154.816 97.7262 154.466 97.5765 154.153 97.6891C153.962 97.7579 149.441 99.4248 148.162 103.756C148.072 104.062 148.26 104.379 148.582 104.466C148.637 104.481 148.693 104.488 148.746 104.488Z" fill="#EA5143"/>
<path d="M152.887 102.593C152.999 102.593 153.113 102.563 153.215 102.501C153.496 102.328 153.576 101.973 153.396 101.705C153.367 101.66 152.641 100.609 151.123 99.9628C150.819 99.8327 150.459 99.9628 150.323 100.254C150.186 100.543 150.323 100.884 150.629 101.014C151.802 101.514 152.373 102.32 152.378 102.328C152.493 102.5 152.688 102.593 152.887 102.593Z" fill="#EA5143"/>
<path d="M146.924 108.175C146.246 108.929 145.83 109.923 145.83 111.012C145.83 113.366 147.745 115.28 150.098 115.28C152.451 115.28 154.366 113.366 154.366 111.012C154.366 109.656 153.731 108.448 152.742 107.668C152.246 107.275 151.662 106.991 151.024 106.849C150.917 106.56 150.969 106.29 151.177 106.041C151.993 106.219 152.735 106.592 153.355 107.11C154.475 108.041 155.188 109.447 155.188 111.014C155.188 113.822 152.906 116.105 150.098 116.105C147.292 116.105 145.008 113.822 145.008 111.014C145.008 109.805 145.437 108.698 146.146 107.826C146.405 107.941 146.664 108.058 146.924 108.175Z" fill="white"/>
<path d="M118.342 121.27V136.217C118.342 136.217 125.289 141.577 130.709 142.042C136.124 142.515 137.995 136.125 137.995 136.125V122.214L118.342 121.27Z" fill="#FFA681"/>
<path d="M118.342 122.736V128.698C121.978 132.733 128.435 134.164 137.993 132.753L137.995 123.68L118.342 122.736Z" fill="#F97853"/>
<path d="M151.061 101.465C150.889 102.908 150.684 104.377 150.425 105.84C148.708 115.56 142.56 126.058 134.796 127.82C118.033 131.625 111.071 118.459 108.391 108.745C108.095 107.666 108.65 106.43 108.416 105.152C107.861 102.126 106.638 98.687 106.36 95.2954C106.169 92.9455 106.034 90.6272 105.934 88.533C105.662 82.6263 109.083 77.1973 114.431 75.078C122.137 72.0132 133.839 69.5856 144.923 76.0868C149.017 78.4882 151.586 82.9324 151.679 87.7985C151.747 91.5158 151.654 96.3753 151.061 101.465Z" fill="#FFA681"/>
<path d="M129.804 108.986C129.491 108.986 129.215 108.761 129.162 108.443C129.103 108.088 129.341 107.752 129.696 107.693L131.933 107.317L128.851 99.1118C128.725 98.7752 128.895 98.4003 129.232 98.2735C129.569 98.1489 129.945 98.3172 130.07 98.6538L133.707 108.339L129.912 108.976C129.876 108.983 129.84 108.986 129.804 108.986Z" fill="#F97853"/>
<path d="M137.826 98.1285C137.826 99.5625 138.565 100.725 139.478 100.725C140.389 100.725 141.129 99.5625 141.129 98.1285C141.129 96.6945 140.39 95.5315 139.478 95.5315C138.565 95.5315 137.826 96.6945 137.826 98.1285Z" fill="#321212"/>
<path d="M119.573 98.1285C119.573 99.5625 120.312 100.725 121.225 100.725C122.137 100.725 122.876 99.5625 122.876 98.1285C122.876 96.6945 122.137 95.5315 121.225 95.5315C120.312 95.5315 119.573 96.6945 119.573 98.1285Z" fill="#321212"/>
<path d="M144.331 91.3181C143.003 91.0591 140.319 90.6317 137.459 90.7334C136.707 90.7596 136.104 91.3269 136.208 91.9258L136.21 91.9411C136.293 92.4188 136.806 92.7412 137.407 92.6953C139.356 92.5489 144.454 92.5806 146.827 93.2866C146.892 92.9434 146.663 92.5784 146.328 92.2592C145.82 91.7739 145.107 91.469 144.331 91.3181Z" fill="#321212"/>
<path d="M117.784 91.6311C119.107 91.3546 121.786 90.8901 124.647 90.9513C125.4 90.9677 126.01 91.5262 125.915 92.1263L125.913 92.1416C125.836 92.6214 125.329 92.9493 124.727 92.9122C122.776 92.7919 117.68 92.8936 115.317 93.6325C115.246 93.2892 115.471 92.922 115.802 92.5974C116.301 92.1077 117.01 91.7929 117.784 91.6311Z" fill="#321212"/>
<path d="M137.826 112.862C137.344 115.145 135.74 119.344 130.336 119.344C124.919 119.344 123.399 115.507 122.877 112.862H137.826Z" fill="white"/>
<path d="M130.412 123.267C131.972 123.267 133.348 122.428 133.407 122.392C133.706 122.206 133.799 121.814 133.614 121.513C133.43 121.214 133.037 121.121 132.737 121.304C132.726 121.311 131.602 121.991 130.413 121.991C129.125 121.991 127.972 121.309 127.961 121.302C127.659 121.121 127.267 121.218 127.086 121.52C126.904 121.821 127.001 122.213 127.301 122.395C127.359 122.431 128.759 123.267 130.412 123.267Z" fill="#F97853"/>
<path d="M151.74 99.939C151.584 100.07 151.433 100.024 151.292 99.7685C149.078 95.8653 151.159 88.0776 144.606 85.0915C139.615 82.8147 137.824 78.1443 137.824 78.1443C136.683 80.0975 133.71 81.889 133.71 81.889C133.71 81.889 126.173 86.355 118.34 89.3728C116.012 90.2702 114.354 91.1807 113.193 91.9622C113.284 91.9873 113.332 92.0015 113.332 92.0015C113.332 92.0015 111.163 95.5243 112.749 101.001C114.336 106.475 112.295 115.508 108.772 117.592C108.834 117.439 111.477 111.193 109.984 106.097C109.124 103.175 109.131 98.5279 108.316 95.7418C107.413 95.1199 105.326 94.0717 104.618 93.6509C104.417 91.255 104.272 88.893 104.17 86.7583C103.884 80.7369 107.489 75.2041 113.127 73.041C121.25 69.9183 133.585 67.4459 145.27 74.0717C149.585 76.519 152.293 81.0495 152.393 86.0096C152.465 89.7958 152.365 94.7493 151.74 99.939Z" fill="#321212"/>
<path d="M108.317 95.742C108.317 95.742 103.739 90.1862 101.037 94.1921C98.335 98.198 102.324 110.479 108.939 107.591L108.317 95.742Z" fill="#FFA681"/>
<path d="M108.502 107.788C108.975 108.684 109.139 109.749 108.875 110.806C108.304 113.089 105.982 114.482 103.698 113.911C101.415 113.34 100.023 111.018 100.593 108.735C100.922 107.419 101.832 106.401 102.981 105.884C103.557 105.624 104.192 105.49 104.846 105.506C104.96 105.262 105.018 104.998 104.893 104.685C104.058 104.66 103.247 104.841 102.521 105.193C101.209 105.825 100.176 107.015 99.7963 108.536C99.1154 111.26 100.775 114.028 103.499 114.709C106.221 115.39 108.992 113.731 109.673 111.006C109.967 109.832 109.818 108.655 109.343 107.636C109.062 107.688 108.782 107.739 108.502 107.788Z" fill="white"/>
<path d="M107.326 103.484C107.081 103.484 106.857 103.322 106.788 103.075C105.763 99.4226 101.979 97.9416 101.941 97.9274C101.654 97.817 101.508 97.4945 101.617 97.206C101.727 96.9174 102.049 96.772 102.338 96.8813C102.515 96.948 106.686 98.5668 107.866 102.774C107.949 103.071 107.777 103.379 107.479 103.463C107.428 103.478 107.377 103.484 107.326 103.484Z" fill="#F97853"/>
<path d="M103.505 101.644C103.402 101.644 103.297 101.615 103.204 101.555C102.944 101.388 102.869 101.042 103.037 100.782C103.065 100.74 103.734 99.7177 105.135 99.0914C105.415 98.9647 105.747 99.0915 105.874 99.3735C106 99.6554 105.874 99.9855 105.592 100.112C104.509 100.597 103.982 101.381 103.978 101.388C103.869 101.553 103.689 101.644 103.505 101.644Z" fill="#F97853"/>
<path d="M350.838 216.373C340.183 224.022 323.514 229.269 323.514 229.269L320.1 216.992L317.438 207.414L315.559 200.663L296.453 200.65C297.488 204.231 298.557 207.888 299.632 211.491C301.01 216.137 302.385 220.687 303.692 224.882C305.536 230.786 307.237 235.978 308.607 239.687C308.928 240.553 309.3 241.495 309.717 242.501C312.27 249.399 314.333 256.88 324.079 252.187C332.659 248.054 344.295 242.326 350.11 238.522L350.838 216.373Z" fill="#FFA681"/>
<path d="M299.631 211.494C301.009 216.139 302.383 220.69 303.691 224.884C311.49 224.058 316.89 220.193 320.102 216.995L317.439 207.418L299.631 211.494Z" fill="#F97853"/>
<path d="M295.574 144.488C295.574 144.488 315.506 192.022 324.078 207.423C324.078 207.423 312.065 217.637 300.363 217.916C300.363 217.916 293.619 165.728 295.574 144.488Z" fill="#FF5353"/>
<path d="M248.907 337.637C249.107 334.31 249.296 331.144 249.468 328.208C250.173 316.209 250.628 308.019 250.628 308.019L245.929 307.808L243.28 307.689L211.332 306.271C211.332 306.271 210.751 315.43 210.065 328.881C209.926 331.633 209.78 334.566 209.635 337.636H248.907V337.637Z" fill="#FFA9A9"/>
<path d="M245.929 307.807L250.628 308.018C250.628 308.018 250.175 316.208 249.468 328.207C237.194 329.23 223.793 329.647 210.065 328.88C210.751 315.429 211.332 306.27 211.332 306.27L243.28 307.688L245.929 307.807Z" fill="#FF8282"/>
<path d="M244.252 337.635C244.993 324.817 245.601 313.838 245.932 307.809L243.282 307.689C242.951 313.745 242.34 324.774 241.597 337.635H244.252Z" fill="#FF8282"/>
<path d="M259.205 337.637H298.477C298.331 334.566 298.187 331.634 298.046 328.881C297.361 315.431 296.779 306.271 296.779 306.271L264.832 307.69L262.183 307.809L257.484 308.02C257.484 308.02 257.938 316.21 258.643 328.209C258.816 331.144 259.005 334.31 259.205 337.637Z" fill="#FFA9A9"/>
<path d="M262.182 307.807L257.482 308.018C257.482 308.018 257.936 316.208 258.642 328.207C270.917 329.23 284.318 329.647 298.045 328.88C297.36 315.429 296.778 306.27 296.778 306.27L264.831 307.688L262.182 307.807Z" fill="#FF8282"/>
<path d="M266.514 337.634C265.77 324.773 265.16 313.744 264.828 307.688L262.179 307.808C262.509 313.837 263.117 324.816 263.859 337.634H266.514Z" fill="#FF8282"/>
<path d="M204.401 283.489C204.396 284.147 204.401 284.796 204.401 285.435C204.415 297.12 204.473 306.174 204.531 310.619C215.816 313.676 227.1 315.652 238.39 316.564C238.905 316.602 239.409 316.641 239.924 316.679C240.198 316.699 240.471 316.717 240.746 316.731C241.351 316.775 241.961 316.813 242.562 316.842C243.236 316.886 243.903 316.918 244.581 316.952C252.262 317.307 259.941 317.169 267.627 316.539C269.179 316.409 270.723 316.26 272.275 316.092C272.375 316.082 272.471 316.072 272.573 316.064C272.968 316.02 273.361 315.972 273.76 315.924C274.001 315.895 274.241 315.866 274.476 315.837C283.41 314.771 292.346 313.026 301.285 310.618C301.309 308.599 301.319 305.606 301.319 301.833C301.319 301.131 301.319 300.411 301.315 299.655V299.651C301.31 294.254 301.277 287.535 301.219 279.941C301.214 279.291 301.209 278.638 301.204 277.974C301.161 272.918 301.108 267.502 301.041 261.855C301.031 261.201 301.026 260.547 301.016 259.889C300.944 254.098 300.858 248.08 300.757 241.972C300.695 238.242 300.627 234.479 300.551 230.71C300.474 226.895 300.392 223.073 300.301 219.276C300.281 218.45 300.262 217.623 300.238 216.796C299.364 180.889 297.85 147.885 295.346 144.204C293.611 141.656 289.636 138.662 284.955 135.645C284.383 135.28 283.802 134.909 283.21 134.54C281.215 133.295 264.947 127.767 262.88 126.552L245.684 125.351C245.578 125.413 229.136 130.96 229.031 131.017C228.325 131.42 227.608 131.829 226.902 132.238C220.812 135.751 214.804 139.452 211.344 142.639C210.839 143.1 210.387 143.551 210.002 143.994C209.695 144.345 209.421 144.686 209.2 145.023C208.994 145.325 208.791 145.835 208.599 146.532C206.518 154.092 205.427 183.804 204.884 216.131C204.846 218.448 204.812 220.778 204.778 223.114C204.764 224.138 204.749 225.167 204.734 226.195C204.72 226.901 204.71 227.613 204.706 228.32C204.701 228.675 204.696 229.026 204.692 229.382C204.668 231.141 204.648 232.895 204.634 234.641C204.619 235.934 204.605 237.221 204.59 238.51C204.435 254.79 204.387 270.603 204.401 283.489Z" fill="#FF8282"/>
<path d="M173.647 329.66C173.224 334.249 178.814 331.76 177.233 322.46C175.656 313.161 180.136 304.74 182.068 305.009C184.005 305.283 180.468 315.164 182.188 318.726C183.904 322.287 186.124 315.366 188.335 311.17C190.628 306.811 190.493 297.3 189.45 290.513C188.407 283.722 200.712 242.49 200.774 230.542L202.273 225.477L207.763 206.93L216.356 177.886C216.356 177.886 211.208 155.902 202.528 157.791C202.528 157.791 197.933 173.103 193.022 190.373C192.19 193.304 191.35 196.294 190.518 199.274C187.019 211.795 183.732 224.155 182.204 231.49C178.166 250.853 177.854 291.106 177.854 291.106C177.854 291.106 170.731 305.894 170.563 312.474C170.384 319.49 174.065 325.07 173.647 329.66Z" fill="#FFA681"/>
<path d="M190.517 199.272L202.273 225.476L207.762 206.928L193.022 190.371C192.189 193.303 191.348 196.292 190.517 199.272Z" fill="#F97853"/>
<path d="M189.935 191.468C195.091 200.312 200.336 209.107 205.559 217.917C207.28 212.154 209.063 206.623 210.736 201.537C210.74 201.523 210.746 201.513 210.75 201.499C211.418 199.466 212.071 197.505 212.697 195.63C212.706 195.596 212.716 195.563 212.73 195.534C212.947 194.876 213.158 194.227 213.374 193.593V193.589C215.868 186.048 217.801 180.054 218.353 176.561C219.843 167.155 215.782 148.728 210.062 145.094C209.914 145.425 209.462 144.402 209.193 145.027C208.189 147.349 203.728 153.083 201.522 158.667C201.239 159.378 200.95 160.118 200.652 160.873C197.456 169.085 193.548 179.77 189.935 191.468Z" fill="#FF8282"/>
<path d="M253.517 142.546C260.964 142.546 266.214 135.752 266.433 135.462C266.747 135.05 266.688 134.445 266.303 134.11C265.919 133.776 265.353 133.838 265.039 134.249C264.971 134.337 260.083 140.623 253.517 140.623C247.029 140.623 243.071 133.51 243.033 133.438C242.783 132.98 242.232 132.825 241.805 133.091C241.376 133.358 241.23 133.945 241.479 134.404C241.659 134.736 245.982 142.546 253.517 142.546Z" fill="#FF5353"/>
<path d="M285.004 207.647C285.142 207.647 285.28 207.613 285.413 207.542C285.859 207.301 286.038 206.717 285.812 206.239L282.564 199.376C282.339 198.899 281.794 198.707 281.347 198.95C280.9 199.192 280.721 199.775 280.948 200.253L284.195 207.116C284.354 207.454 284.673 207.647 285.004 207.647Z" fill="#FF5353"/>
<path d="M291.773 202.024C291.889 202.102 292.024 202.152 292.171 202.167C292.67 202.214 293.11 201.82 293.154 201.287L293.79 193.625C293.835 193.092 293.467 192.62 292.967 192.573C292.469 192.526 292.028 192.92 291.985 193.453L291.348 201.115C291.317 201.492 291.492 201.836 291.773 202.024Z" fill="#FF5353"/>
<path d="M274.325 190.146C274.761 190.146 275.145 189.809 275.218 189.335L276.391 181.746C276.472 181.218 276.139 180.718 275.645 180.631C275.149 180.545 274.684 180.901 274.603 181.43L273.43 189.019C273.349 189.547 273.683 190.046 274.177 190.134C274.227 190.141 274.277 190.146 274.325 190.146Z" fill="#FF5353"/>
<path d="M245.149 192.969C245.307 192.969 245.465 192.926 245.61 192.834C246.041 192.562 246.184 191.967 245.929 191.506L242.265 184.888C242.01 184.427 241.454 184.274 241.023 184.548C240.592 184.821 240.449 185.414 240.705 185.876L244.369 192.495C244.537 192.8 244.84 192.969 245.149 192.969Z" fill="#FF5353"/>
<path d="M280.992 163.303C281.16 163.303 281.33 163.253 281.482 163.148L287.521 158.97C287.942 158.68 288.062 158.08 287.79 157.63C287.518 157.181 286.957 157.052 286.536 157.343L280.498 161.52C280.077 161.811 279.957 162.411 280.229 162.86C280.404 163.147 280.694 163.303 280.992 163.303Z" fill="#FF5353"/>
<path d="M254.089 224.968C254.226 224.968 254.365 224.934 254.497 224.863C254.943 224.621 255.123 224.038 254.896 223.56L251.649 216.697C251.423 216.219 250.878 216.028 250.431 216.27C249.986 216.511 249.806 217.095 250.033 217.572L253.28 224.435C253.438 224.773 253.757 224.968 254.089 224.968Z" fill="#FF5353"/>
<path d="M268.357 168.468C268.658 168.468 268.953 168.307 269.126 168.013C269.392 167.559 269.263 166.96 268.839 166.677L262.743 162.596C262.319 162.313 261.759 162.448 261.494 162.903C261.228 163.357 261.357 163.956 261.781 164.239L267.877 168.32C268.027 168.419 268.193 168.468 268.357 168.468Z" fill="#FF5353"/>
<path d="M282.856 139.931C282.843 140.118 282.879 140.302 282.96 140.455C283.099 140.739 283.373 140.94 283.697 140.964C284.195 141.003 284.627 140.599 284.663 140.066L284.95 135.649C284.38 135.284 283.799 134.913 283.207 134.544L282.856 139.931Z" fill="#FF5353"/>
<path d="M290.982 182.04C291.283 182.04 291.578 181.879 291.751 181.585C292.017 181.132 291.888 180.533 291.464 180.249L285.368 176.168C284.944 175.885 284.384 176.021 284.119 176.475C283.853 176.929 283.982 177.527 284.406 177.811L290.502 181.892C290.65 181.992 290.817 182.04 290.982 182.04Z" fill="#FF5353"/>
<path d="M242.369 148.55C242.54 148.55 242.713 148.499 242.866 148.391C243.284 148.096 243.4 147.496 243.124 147.049L239.649 141.406C239.374 140.959 238.811 140.835 238.394 141.13C237.976 141.425 237.86 142.025 238.136 142.473L241.612 148.115C241.785 148.396 242.074 148.55 242.369 148.55Z" fill="#FF5353"/>
<path d="M239.252 246.01C239.49 246.01 239.727 245.91 239.906 245.711L244.886 240.162C245.233 239.776 245.221 239.163 244.86 238.793C244.5 238.421 243.926 238.434 243.579 238.821L238.598 244.369C238.251 244.755 238.264 245.368 238.625 245.74C238.801 245.92 239.027 246.01 239.252 246.01Z" fill="#FF5353"/>
<path d="M257.555 244.856C257.794 244.856 258.031 244.756 258.209 244.558L263.19 239.008C263.537 238.622 263.524 238.009 263.164 237.639C262.802 237.267 262.229 237.28 261.883 237.666L256.902 243.215C256.555 243.601 256.567 244.214 256.928 244.586C257.104 244.766 257.33 244.856 257.555 244.856Z" fill="#FF5353"/>
<path d="M270.714 282.363C270.797 282.124 270.794 281.851 270.683 281.603L267.573 274.667C267.357 274.184 266.816 273.98 266.364 274.212C265.913 274.444 265.723 275.022 265.939 275.505L269.049 282.441C269.265 282.924 269.806 283.128 270.257 282.896C270.478 282.783 270.636 282.588 270.714 282.363Z" fill="#FF5353"/>
<path d="M218.191 305.249C218.275 305.011 218.271 304.738 218.159 304.49L215.05 297.553C214.833 297.07 214.292 296.867 213.841 297.099C213.389 297.33 213.199 297.909 213.416 298.392L216.525 305.328C216.742 305.811 217.283 306.014 217.734 305.783C217.955 305.67 218.112 305.476 218.191 305.249Z" fill="#FF5353"/>
<path d="M240.745 316.736C241.352 316.778 241.958 316.818 242.561 316.846L243.195 312.526C243.271 311.997 242.933 311.501 242.439 311.421C241.945 311.339 241.482 311.699 241.405 312.228L240.745 316.736Z" fill="#FF5353"/>
<path d="M233.511 303.678C233.707 303.533 233.848 303.305 233.887 303.033L235 295.433C235.078 294.904 234.74 294.409 234.245 294.326C233.75 294.243 233.287 294.605 233.21 295.134L232.097 302.734C232.019 303.263 232.357 303.758 232.852 303.841C233.093 303.882 233.327 303.817 233.511 303.678Z" fill="#FF5353"/>
<path d="M277.241 240.14C277.395 240.14 277.552 240.097 277.695 240.009C278.128 239.741 278.275 239.147 278.025 238.684L274.422 232.027C274.172 231.564 273.618 231.407 273.184 231.674C272.751 231.942 272.602 232.536 272.854 232.999L276.456 239.657C276.624 239.966 276.927 240.14 277.241 240.14Z" fill="#FF5353"/>
<path d="M266.661 223.498C266.989 223.498 267.306 223.307 267.468 222.973L270.765 216.138C270.994 215.662 270.819 215.077 270.374 214.831C269.931 214.584 269.384 214.772 269.154 215.249L265.856 222.085C265.626 222.56 265.801 223.145 266.246 223.39C266.379 223.463 266.522 223.498 266.661 223.498Z" fill="#FF5353"/>
<path d="M295.311 222.497C295.405 222.617 295.527 222.708 295.652 222.766C295.958 222.9 296.317 222.852 296.587 222.611L300.294 219.281C300.276 218.455 300.258 217.627 300.236 216.801L295.419 221.126C295.038 221.473 294.988 222.082 295.311 222.497Z" fill="#FF5353"/>
<path d="M266.71 150.977C267.039 150.977 267.355 150.786 267.517 150.452L270.814 143.617C271.044 143.141 270.869 142.556 270.424 142.31C269.98 142.065 269.434 142.251 269.203 142.728L265.907 149.564C265.677 150.039 265.852 150.624 266.297 150.87C266.428 150.943 266.57 150.977 266.71 150.977Z" fill="#FF5353"/>
<path d="M245.576 176.021C245.633 176.021 245.691 176.015 245.749 176.003C246.241 175.902 246.562 175.394 246.467 174.868L245.103 167.316C245.008 166.789 244.532 166.447 244.041 166.548C243.55 166.649 243.228 167.158 243.323 167.683L244.687 175.235C244.77 175.7 245.15 176.021 245.576 176.021Z" fill="#FF5353"/>
<path d="M257.343 182.651C257.399 182.651 257.457 182.645 257.515 182.633C258.007 182.531 258.328 182.023 258.233 181.497L256.869 173.946C256.774 173.419 256.299 173.078 255.808 173.177C255.316 173.279 254.995 173.787 255.09 174.313L256.454 181.866C256.537 182.329 256.916 182.651 257.343 182.651Z" fill="#FF5353"/>
<path d="M248.914 157.734C249.215 157.734 249.507 157.575 249.68 157.285L253.534 150.791C253.802 150.34 253.677 149.74 253.254 149.453C252.83 149.167 252.272 149.301 252.003 149.752L248.149 156.245C247.881 156.697 248.006 157.297 248.429 157.583C248.58 157.686 248.748 157.734 248.914 157.734Z" fill="#FF5353"/>
<path d="M284.268 224.699C284.516 224.416 284.591 223.99 284.425 223.618L281.327 216.677C281.112 216.194 280.571 215.989 280.119 216.22C279.666 216.45 279.475 217.029 279.692 217.512L282.789 224.454C283.005 224.937 283.546 225.141 283.997 224.91C284.103 224.858 284.194 224.786 284.268 224.699Z" fill="#FF5353"/>
<path d="M260.953 204.559C261.315 204.559 261.657 204.325 261.797 203.943L264.418 196.78C264.601 196.282 264.371 195.72 263.905 195.524C263.438 195.329 262.912 195.575 262.731 196.074L260.11 203.237C259.927 203.735 260.157 204.297 260.623 204.492C260.731 204.537 260.843 204.559 260.953 204.559Z" fill="#FF5353"/>
<path d="M232.155 248.8C232.293 248.8 232.432 248.766 232.564 248.695C233.01 248.453 233.189 247.87 232.963 247.392L229.715 240.529C229.49 240.051 228.945 239.86 228.498 240.102C228.052 240.343 227.873 240.927 228.099 241.404L231.346 248.268C231.505 248.605 231.824 248.8 232.155 248.8Z" fill="#FF5353"/>
<path d="M279.884 298.124C279.885 298.271 279.918 298.421 279.985 298.56C280.215 299.036 280.763 299.222 281.207 298.975L287.593 295.437C288.037 295.192 288.211 294.606 287.981 294.131C287.751 293.655 287.204 293.47 286.759 293.716L280.374 297.254C280.059 297.427 279.881 297.77 279.884 298.124Z" fill="#FF5353"/>
<path d="M297.217 302.525C297.217 302.674 297.249 302.823 297.316 302.962C297.546 303.438 298.093 303.62 298.538 303.375L301.316 301.837C301.316 301.136 301.316 300.414 301.311 299.66L297.708 301.655C297.393 301.828 297.213 302.173 297.217 302.525Z" fill="#FF5353"/>
<path d="M270.386 311.08L272.57 316.068C272.966 316.026 273.361 315.977 273.76 315.928C273.998 315.9 274.237 315.87 274.475 315.842L272.026 310.257C271.815 309.771 271.276 309.559 270.821 309.79C270.369 310.018 270.171 310.594 270.386 311.08Z" fill="#FF5353"/>
<path d="M220.371 231.297C220.807 231.297 221.191 230.96 221.264 230.486L222.437 222.897C222.519 222.369 222.184 221.87 221.69 221.782C221.195 221.696 220.731 222.052 220.649 222.581L219.476 230.17C219.395 230.698 219.728 231.198 220.222 231.285C220.272 231.293 220.322 231.297 220.371 231.297Z" fill="#FF5353"/>
<path d="M219.622 175.302C219.779 175.302 219.938 175.259 220.082 175.167C220.513 174.895 220.656 174.3 220.4 173.839L216.736 167.221C216.482 166.76 215.925 166.607 215.496 166.881C215.065 167.154 214.922 167.747 215.178 168.209L218.841 174.827C219.011 175.133 219.313 175.302 219.622 175.302Z" fill="#FF5353"/>
<path d="M231.402 202.205C231.57 202.205 231.74 202.155 231.892 202.05L237.931 197.873C238.352 197.582 238.472 196.982 238.2 196.533C237.928 196.084 237.367 195.955 236.948 196.245L230.909 200.423C230.488 200.714 230.368 201.314 230.64 201.763C230.814 202.049 231.104 202.205 231.402 202.205Z" fill="#FF5353"/>
<path d="M295.342 247.324C295.48 247.324 295.618 247.29 295.751 247.219C296.197 246.977 296.376 246.394 296.15 245.916L292.902 239.053C292.676 238.575 292.132 238.384 291.685 238.627C291.238 238.868 291.059 239.452 291.286 239.929L294.533 246.792C294.693 247.13 295.011 247.324 295.342 247.324Z" fill="#FF5353"/>
<path d="M221.112 212.63C221.414 212.63 221.709 212.469 221.882 212.175C222.148 211.721 222.019 211.122 221.595 210.839L215.499 206.758C215.075 206.475 214.515 206.61 214.249 207.065C213.984 207.519 214.113 208.117 214.537 208.401L220.633 212.482C220.781 212.582 220.949 212.63 221.112 212.63Z" fill="#FF5353"/>
<path d="M235.726 222.338C235.948 222.557 236.267 222.653 236.58 222.562C237.063 222.421 237.348 221.889 237.217 221.373L235.33 213.951C235.197 213.435 234.701 213.129 234.217 213.27C233.734 213.411 233.449 213.943 233.58 214.459L235.467 221.882C235.514 222.063 235.606 222.219 235.726 222.338Z" fill="#FF5353"/>
<path d="M210 143.997L211.577 146.553C211.752 146.832 212.04 146.986 212.337 146.986C212.507 146.986 212.678 146.938 212.831 146.828C213.248 146.535 213.365 145.934 213.091 145.487L211.339 142.642C210.836 143.103 210.386 143.554 210 143.997Z" fill="#FF5353"/>
<path d="M203.106 160.871L204.783 163.591C204.958 163.874 205.245 164.028 205.543 164.028C205.713 164.028 205.885 163.976 206.041 163.87C206.459 163.572 206.571 162.972 206.297 162.524L203.92 158.665C203.655 159.375 203.385 160.115 203.106 160.871Z" fill="#FF5353"/>
<path d="M281.491 271.287C281.729 271.287 281.966 271.188 282.144 270.989L287.125 265.441C287.472 265.055 287.46 264.442 287.099 264.07C286.738 263.699 286.165 263.712 285.818 264.099L280.837 269.647C280.491 270.033 280.503 270.646 280.863 271.017C281.038 271.198 281.265 271.287 281.491 271.287Z" fill="#FF5353"/>
<path d="M248.349 290.685C248.588 290.685 248.825 290.586 249.003 290.387L253.984 284.837C254.33 284.452 254.318 283.838 253.957 283.467C253.597 283.095 253.023 283.108 252.676 283.495L247.696 289.043C247.349 289.429 247.361 290.042 247.722 290.414C247.898 290.595 248.124 290.685 248.349 290.685Z" fill="#FF5353"/>
<path d="M239.139 282.98C239.289 282.783 239.367 282.522 239.334 282.249L238.435 274.618C238.373 274.087 237.919 273.711 237.423 273.777C236.926 273.844 236.574 274.328 236.637 274.86L237.536 282.492C237.598 283.023 238.052 283.399 238.548 283.332C238.79 283.3 238.997 283.167 239.139 282.98Z" fill="#FF5353"/>
<path d="M258.016 304.49C258.254 304.49 258.491 304.391 258.669 304.192L263.65 298.644C263.997 298.258 263.985 297.645 263.624 297.274C263.263 296.903 262.689 296.916 262.343 297.303L257.362 302.852C257.014 303.238 257.028 303.851 257.388 304.222C257.564 304.401 257.791 304.49 258.016 304.49Z" fill="#FF5353"/>
<path d="M204.399 283.492C204.395 284.15 204.399 284.8 204.399 285.439L210.021 285.944C210.519 285.992 210.96 285.593 211 285.06C211.045 284.526 210.672 284.06 210.173 284.012L204.399 283.492Z" fill="#FF5353"/>
<path d="M270.24 259.619C270.478 259.619 270.715 259.518 270.894 259.32L275.874 253.771C276.221 253.385 276.209 252.772 275.848 252.4C275.486 252.029 274.914 252.042 274.567 252.429L269.586 257.977C269.24 258.363 269.252 258.977 269.612 259.348C269.788 259.529 270.014 259.619 270.24 259.619Z" fill="#FF5353"/>
<path d="M246.278 257.208C246.294 257.461 246.403 257.708 246.6 257.885L252.104 262.836C252.487 263.18 253.058 263.128 253.381 262.718C253.703 262.307 253.654 261.697 253.27 261.352L247.766 256.402C247.383 256.058 246.812 256.11 246.489 256.52C246.332 256.719 246.263 256.966 246.278 257.208Z" fill="#FF5353"/>
<path d="M220.05 284.438C220.204 284.438 220.36 284.396 220.502 284.308C220.935 284.04 221.084 283.446 220.832 282.983L217.23 276.325C216.98 275.862 216.425 275.704 215.992 275.972C215.559 276.24 215.41 276.834 215.661 277.297L219.264 283.955C219.432 284.265 219.737 284.438 220.05 284.438Z" fill="#FF5353"/>
<path d="M213.815 264.65C214.144 264.65 214.46 264.459 214.621 264.126L217.919 257.29C218.148 256.814 217.974 256.23 217.529 255.985C217.085 255.738 216.538 255.926 216.308 256.401L213.01 263.237C212.781 263.712 212.956 264.297 213.4 264.543C213.533 264.615 213.675 264.65 213.815 264.65Z" fill="#FF5353"/>
<path d="M223.65 187.037C223.978 187.037 224.294 186.845 224.456 186.512L227.753 179.676C227.982 179.201 227.807 178.616 227.363 178.37C226.919 178.124 226.372 178.311 226.142 178.788L222.845 185.623C222.616 186.099 222.791 186.683 223.235 186.929C223.368 187.002 223.51 187.037 223.65 187.037Z" fill="#FF5353"/>
<path d="M220.049 158.352C220.106 158.352 220.163 158.346 220.221 158.334C220.713 158.233 221.035 157.724 220.939 157.199L219.575 149.647C219.48 149.121 219.005 148.778 218.514 148.879C218.022 148.98 217.701 149.488 217.796 150.014L219.16 157.566C219.244 158.03 219.623 158.352 220.049 158.352Z" fill="#FF5353"/>
<path d="M203.488 184.412C203.545 184.412 203.603 184.407 203.661 184.395C204.153 184.293 204.474 183.785 204.379 183.259L203.015 175.708C202.92 175.182 202.444 174.839 201.954 174.939C201.462 175.041 201.14 175.549 201.235 176.075L202.6 183.627C202.684 184.091 203.063 184.412 203.488 184.412Z" fill="#FF5353"/>
<path d="M231.815 164.984C231.872 164.984 231.93 164.978 231.988 164.966C232.48 164.864 232.801 164.356 232.706 163.83L231.342 156.279C231.247 155.752 230.771 155.411 230.281 155.51C229.789 155.612 229.467 156.12 229.563 156.646L230.927 164.198C231.01 164.661 231.39 164.984 231.815 164.984Z" fill="#FF5353"/>
<path d="M226.415 138.675C226.59 138.718 226.762 138.703 226.918 138.647C227.201 138.541 227.431 138.286 227.503 137.955L229.027 131.02C228.322 131.423 227.607 131.832 226.896 132.24L225.741 137.508C225.624 138.031 225.925 138.55 226.415 138.675Z" fill="#FF5353"/>
<path d="M205.682 196.088C205.982 196.088 206.276 195.93 206.449 195.639L210.303 189.146C210.57 188.693 210.446 188.094 210.024 187.808C209.6 187.521 209.041 187.656 208.772 188.106L204.918 194.6C204.651 195.052 204.775 195.651 205.197 195.938C205.348 196.039 205.516 196.088 205.682 196.088Z" fill="#FF5353"/>
<path d="M231.42 265.853C231.668 265.57 231.741 265.143 231.576 264.772L228.479 257.83C228.264 257.347 227.723 257.143 227.272 257.373C226.818 257.604 226.628 258.183 226.844 258.665L229.941 265.607C230.156 266.09 230.697 266.295 231.148 266.064C231.253 266.01 231.344 265.938 231.42 265.853Z" fill="#FF5353"/>
<path d="M295.164 278.898L301.217 279.946C301.213 279.297 301.208 278.643 301.198 277.981L295.456 276.98C294.962 276.899 294.494 277.255 294.417 277.783C294.337 278.311 294.669 278.811 295.164 278.898Z" fill="#FF5353"/>
<path d="M297.005 261.161L301.036 261.858C301.028 261.204 301.023 260.551 301.013 259.893L297.297 259.249C296.803 259.163 296.34 259.523 296.259 260.051C296.179 260.579 296.511 261.074 297.005 261.161Z" fill="#FF5353"/>
<path d="M208.104 245.71C208.467 245.71 208.809 245.477 208.947 245.094L211.568 237.932C211.751 237.433 211.521 236.871 211.055 236.676C210.588 236.48 210.062 236.726 209.881 237.225L207.26 244.388C207.077 244.886 207.308 245.448 207.774 245.644C207.883 245.689 207.994 245.71 208.104 245.71Z" fill="#FF5353"/>
<path d="M204.774 223.115C206.476 216.083 208.614 208.268 210.734 201.535C210.738 201.521 210.743 201.511 210.748 201.497C211.401 199.416 212.055 197.441 212.694 195.629C212.704 195.595 212.714 195.562 212.728 195.532C212.925 194.961 213.127 194.408 213.324 193.87C213.352 193.774 213.372 193.682 213.372 193.591V193.587C213.372 193.264 213.17 192.962 212.848 192.841C212.43 192.693 211.969 192.904 211.82 193.322C209.647 199.243 207.081 207.77 204.879 216.132C204.842 218.447 204.808 220.779 204.774 223.115Z" fill="#FF5353"/>
<path d="M230.759 87.3624C230.759 87.3624 224.448 80.4076 226.83 72.316C229.212 64.2255 235.727 64.3141 235.727 64.3141C235.727 64.3141 239.529 55.7088 246.003 55.4246C252.476 55.1404 258.58 43.643 264.47 46.7658C270.361 49.8885 263.832 56.7023 263.832 56.7023C263.832 56.7023 273.925 46.0564 277.253 49.1791C280.581 52.3019 272.632 60.6765 272.632 60.6765C272.632 60.6765 281.112 54.7152 283.898 56.9854C286.684 59.2567 277.253 69.0512 277.253 69.0512C277.253 69.0512 283.355 80.0523 277.214 84.9851L230.759 87.3624Z" fill="#321212"/>
<path d="M274.851 89.6901C274.851 89.6901 278.886 84.3092 281.887 88.7589C284.887 93.2074 280.645 106.349 273.299 103.141L274.851 89.6901Z" fill="#F97853"/>
<path d="M274.903 99.08C275.174 99.08 275.424 98.9007 275.501 98.6264C276.64 94.5691 280.843 92.9242 280.885 92.9089C281.206 92.7864 281.366 92.4279 281.245 92.1088C281.124 91.7885 280.765 91.6268 280.446 91.7481C280.249 91.8224 275.618 93.6204 274.306 98.2919C274.214 98.622 274.407 98.9641 274.737 99.057C274.792 99.0723 274.848 99.08 274.903 99.08Z" fill="#EA5143"/>
<path d="M279.144 97.0361C279.26 97.0361 279.376 97.0044 279.479 96.9378C279.768 96.752 279.851 96.3683 279.665 96.0798C279.635 96.0317 278.89 94.8971 277.335 94.202C277.023 94.061 276.655 94.202 276.515 94.5146C276.375 94.8272 276.515 95.1944 276.828 95.3343C278.031 95.8721 278.615 96.7432 278.621 96.752C278.741 96.9367 278.941 97.0361 279.144 97.0361Z" fill="#EA5143"/>
<path d="M233.263 89.6911C233.263 89.6911 229.228 84.3102 226.228 88.7598C223.227 93.2084 227.469 106.35 234.815 103.142L233.263 89.6911Z" fill="#F97853"/>
<path d="M233.211 99.081C232.94 99.081 232.691 98.9017 232.613 98.6274C231.476 94.5701 227.272 92.9251 227.229 92.9098C226.909 92.7874 226.748 92.4289 226.87 92.1098C226.991 91.7895 227.349 91.6277 227.669 91.7491C227.865 91.8234 232.497 93.6214 233.808 98.2929C233.901 98.623 233.709 98.9651 233.377 99.058C233.323 99.0733 233.267 99.081 233.211 99.081Z" fill="#EA5143"/>
<path d="M228.967 97.0371C228.851 97.0371 228.735 97.0054 228.632 96.9387C228.343 96.7529 228.26 96.3693 228.446 96.0807C228.476 96.0326 229.22 94.8981 230.776 94.2029C231.088 94.0619 231.456 94.2029 231.596 94.5155C231.736 94.8281 231.596 95.1954 231.283 95.3353C230.08 95.8731 229.495 96.7442 229.49 96.7529C229.372 96.9377 229.172 97.0371 228.967 97.0371Z" fill="#EA5143"/>
<path d="M244.123 114.288V127.356C244.123 127.356 248.021 134.011 253.29 134.464C258.555 134.923 263.234 128.734 263.234 128.734V115.206L244.123 114.288Z" fill="#FFA681"/>
<path d="M244.123 114.288V120.087C247.659 124.01 253.94 124.991 263.234 123.619V115.207L244.123 114.288Z" fill="#F97853"/>
<path d="M230.349 80.7275C230.588 85.8056 231.071 92.1582 232.042 97.232V97.2462C232.042 97.2604 232.046 97.2757 232.052 97.2954C232.052 97.3008 232.056 97.3008 232.056 97.3052C232.296 98.5447 232.563 99.7109 232.856 100.759C233.032 101.373 233.223 102.017 233.437 102.676C236.534 112.394 243.711 126.459 261.747 120.025C269.342 117.317 273.299 109.473 275.314 100.965C275.431 100.457 275.544 99.9547 275.641 99.4716C275.709 99.1491 275.773 98.8376 275.831 98.5294L275.919 98.0758C275.933 97.9982 275.943 97.9446 275.948 97.9096C275.954 97.89 275.954 97.8801 275.954 97.8801C277.144 91.3385 277.324 84.7225 277.237 79.9952C277.144 75.175 274.51 70.7647 270.315 68.3896C258.953 61.9452 246.956 64.3498 239.058 67.3851C233.573 69.4881 230.066 74.869 230.349 80.7275Z" fill="#FFA681"/>
<path d="M232.036 97.2318C232.036 97.2318 232.036 97.2362 232.041 97.246C232.041 97.2602 232.045 97.2755 232.05 97.2952C232.05 97.3006 232.055 97.3006 232.055 97.305C232.172 97.7291 232.806 100.056 233.435 102.676C236.533 112.394 243.71 126.459 261.745 120.024C269.341 117.317 273.297 109.472 275.313 100.964C275.43 100.457 275.542 99.9545 275.64 99.4714C275.707 99.1489 275.772 98.8374 275.83 98.5292L275.917 98.0756C275.931 97.998 275.941 97.9444 275.947 97.9094C275.952 97.8898 275.952 97.8799 275.952 97.8799L273.298 97.3433C272.791 99.8561 271.669 102.221 270.293 104.324C268.049 98.9478 256.662 102.52 256.662 102.52L256.608 102.539C255.915 102.754 255.204 102.866 254.485 102.866C253.749 102.866 253.016 102.749 252.305 102.52C252.305 102.52 241.055 98.7926 238.723 103.92C236.392 100.31 234.81 97.0361 234.81 97.0361L232.039 97.2318H232.036ZM254.458 104.955C267.333 103.218 265.308 110.15 265.308 110.15C263.879 111.453 262.572 112.404 261.694 112.897C258.884 114.463 256.117 115.058 254.113 114.96C252.137 114.877 251.596 115.283 246.599 112.58C245.716 112.107 244.823 111.404 243.95 110.57C243.95 110.57 243.95 110.57 243.946 110.57V110.565C243.73 109.209 241.55 102.735 254.458 104.955Z" fill="#321212"/>
<path d="M242.792 90.1783C242.792 91.573 243.511 92.7042 244.398 92.7042C245.284 92.7042 246.003 91.573 246.003 90.1783C246.003 88.7836 245.284 87.6523 244.398 87.6523C243.51 87.6523 242.792 88.7836 242.792 90.1783Z" fill="#321212"/>
<path d="M262.866 90.1783C262.866 91.573 263.585 92.7042 264.472 92.7042C265.359 92.7042 266.077 91.573 266.077 90.1783C266.077 88.7836 265.358 87.6523 264.472 87.6523C263.585 87.6523 262.866 88.7836 262.866 90.1783Z" fill="#321212"/>
<path d="M238.68 81.6622C238.68 81.6622 245.316 79.0401 250.425 81.2469L249.914 84.0887C249.914 84.0887 242.415 83.4548 238.638 84.985C238.299 83.892 238.249 82.7858 238.68 81.6622Z" fill="#321212"/>
<path d="M270.231 81.6742C270.231 81.6742 263.546 79.0324 258.4 81.2556L258.915 84.1182C258.915 84.1182 266.469 83.4788 270.275 85.0221C270.616 83.9204 270.665 82.8066 270.231 81.6742Z" fill="#321212"/>
<path d="M253.842 101.466C252.795 101.466 251.755 101.058 251.595 100.993C251.278 100.864 251.126 100.501 251.255 100.184C251.384 99.8669 251.747 99.7139 252.064 99.8428C252.624 100.07 253.971 100.428 254.554 100.078C254.666 100.01 254.82 99.8767 254.859 99.4996C255.083 97.3311 254.489 90.0648 254.484 89.9915C254.455 89.6494 254.71 89.3499 255.052 89.3215C255.395 89.2931 255.694 89.5478 255.722 89.8888C255.747 90.1926 256.331 97.3442 256.095 99.6264C256.006 100.486 255.555 100.925 255.192 101.142C254.795 101.383 254.318 101.466 253.842 101.466Z" fill="#F97853"/>
<path d="M261.756 106.195C261.285 108.567 259.718 112.929 254.441 112.929C249.151 112.929 247.668 108.943 247.158 106.195H261.756Z" fill="white"/>
<path d="M230.347 80.7262C230.589 85.8043 231.074 92.1558 232.042 97.2339L234.817 97.0372C234.817 97.0372 234.145 92.7493 233.834 89.9556C233.524 87.1618 232.997 81.9394 235.381 81.288C237.758 80.6431 236.364 74.6851 239.672 72.1023C242.981 69.5141 250.383 68.8036 255.263 71.8083C260.142 74.8064 265.641 71.581 267.889 72.1023C270.143 72.6182 273.197 75.7213 272.372 78.621C271.54 81.5142 274.023 83.2773 274.626 86.2754C275.228 89.2735 273.303 97.3443 273.303 97.3443L275.954 97.8788C277.146 91.335 277.325 84.7233 277.239 79.9993C277.146 75.1759 274.514 70.7678 270.317 68.3905C258.95 61.9461 246.956 64.3485 239.059 67.3849C233.575 69.49 230.067 74.872 230.347 80.7262Z" fill="#321212"/>
<path d="M344.589 220.563C342.901 235.955 332.852 270.341 325.894 277.076C316.835 285.845 287.023 304.307 271.495 313.773C268.693 315.48 281.852 326.852 281.852 326.852C281.852 326.852 323.083 309.22 338.829 295.319C343.283 291.387 352.327 278.984 362.537 255.359C365.633 248.195 373.134 233.749 372.745 224.329C372.297 213.488 355.073 215.271 344.589 220.563Z" fill="#FF8282"/>
<path d="M312.415 308.978C312.415 308.978 301.201 313.236 297.227 317.921C293.253 322.605 288.001 326.579 289.277 328.424C290.555 330.269 296.374 324.875 296.374 324.875C296.374 324.875 297.97 330.805 303.613 331.444C309.258 332.084 319.937 321.042 319.937 321.042L312.415 308.978Z" fill="#FFA681"/>
<path d="M423.11 263.537C423.113 264.511 423.104 265.663 423.087 266.969C423.069 268.27 423.041 269.72 423.001 271.307C422.97 272.395 422.936 273.545 422.896 274.751C422.859 275.768 422.82 276.82 422.777 277.913C422.729 279.029 422.678 280.179 422.621 281.365C421.841 297.485 419.953 319.742 415.802 337.585H328.559C331.468 324.617 335.92 304.162 339.452 277.624C339.599 276.508 339.747 275.381 339.892 274.242C340.037 273.103 340.178 271.954 340.321 270.796C340.397 270.179 340.471 269.557 340.545 268.936C340.605 268.423 340.664 267.911 340.721 267.406C340.882 265.975 341.03 264.568 341.161 263.187C341.271 262.034 341.374 260.902 341.47 259.783C342.967 241.941 342.439 228.569 344.588 220.561C347.092 211.237 376.287 200.549 376.287 200.549L394.579 201.505C394.579 201.505 412.019 207.2 421.341 215.384C430.667 223.572 422.868 248.001 423.095 261.872C423.104 262.35 423.106 262.906 423.11 263.537Z" fill="#FFA9A9"/>
<path d="M423.087 266.97C415.155 267.932 406.88 268.313 398.76 268.313C372.168 268.313 347.205 264.248 341.16 263.189C341.271 262.036 341.373 260.903 341.47 259.785C348.493 261.029 389.138 267.751 423.109 263.539C423.112 264.511 423.104 265.663 423.087 266.97Z" fill="#FFD8D8"/>
<path d="M423.002 271.306C422.971 272.394 422.937 273.544 422.897 274.75C415.022 275.696 406.815 276.067 398.76 276.067C370.667 276.067 344.392 271.53 340.32 270.796C340.397 270.179 340.471 269.557 340.544 268.936C340.604 268.423 340.664 267.911 340.72 267.406C344.764 268.143 387.501 275.684 423.002 271.306Z" fill="#FFD8D8"/>
<path d="M422.777 277.913C422.729 279.029 422.677 280.178 422.621 281.364C414.427 282.406 405.848 282.813 397.437 282.813C370.237 282.813 344.746 278.563 339.451 277.623C339.599 276.507 339.746 275.38 339.892 274.241C346.187 275.364 388.173 282.441 422.777 277.913Z" fill="#FFD8D8"/>
<path d="M381.563 218.099C390.658 218.099 399.048 208.431 399.412 208.007C399.643 207.738 399.611 207.333 399.342 207.102C399.074 206.871 398.669 206.902 398.437 207.171C398.35 207.273 389.562 217.397 380.78 216.787C380.429 216.762 380.119 217.03 380.095 217.383C380.07 217.736 380.337 218.043 380.691 218.067C380.982 218.089 381.274 218.099 381.563 218.099Z" fill="#FF8282"/>
<path d="M389.449 326.817C389.77 326.817 390.048 326.575 390.085 326.248C390.126 325.896 389.873 325.578 389.521 325.537C366.028 322.833 356.296 282.166 356.2 281.756C356.12 281.411 355.775 281.197 355.429 281.276C355.084 281.357 354.869 281.702 354.949 282.047C355.348 283.759 364.991 324.006 389.374 326.812C389.4 326.816 389.425 326.817 389.449 326.817Z" fill="#FF8282"/>
<path d="M380.093 314.509C380.308 314.509 380.518 314.401 380.639 314.204C380.825 313.903 380.732 313.507 380.43 313.321C367.935 305.616 366.077 294.261 366.059 294.148C366.006 293.798 365.682 293.553 365.329 293.61C364.979 293.662 364.738 293.989 364.79 294.339C364.864 294.827 366.73 306.383 379.757 314.414C379.861 314.479 379.978 314.509 380.093 314.509Z" fill="#FF8282"/>
<path d="M387.388 184.014C401.602 184.014 413.125 172.491 413.125 158.277C413.125 144.063 401.602 132.54 387.388 132.54C373.173 132.54 361.65 144.063 361.65 158.277C361.65 172.491 373.173 184.014 387.388 184.014Z" fill="#321212"/>
<path d="M362.071 153.663C362.071 153.663 354.783 151.651 355.744 144.577C356.561 138.556 363.634 142.459 363.012 137.754C362.39 133.049 361.009 128.771 367.096 127.595C372.42 126.566 372.509 130.214 379.501 124.921C387.761 118.668 394.106 133.148 401.478 133.583C412.352 134.225 413.723 140.374 414.793 145.294C415.862 150.213 411.677 153.663 411.677 153.663H362.071Z" fill="#321212"/>
<path d="M365.974 165.48C365.974 165.48 361.897 160.044 358.866 164.538C355.835 169.033 360.121 182.309 367.543 179.068L365.974 165.48Z" fill="#F97853"/>
<path d="M365.922 174.965C365.648 174.965 365.396 174.784 365.319 174.507C364.168 170.409 359.922 168.747 359.88 168.731C359.556 168.607 359.393 168.246 359.517 167.922C359.639 167.599 360.001 167.436 360.325 167.558C360.524 167.633 365.203 169.449 366.527 174.169C366.62 174.502 366.427 174.848 366.092 174.942C366.035 174.958 365.978 174.965 365.922 174.965Z" fill="#EA5143"/>
<path d="M361.634 172.9C361.517 172.9 361.4 172.869 361.296 172.801C361.004 172.613 360.921 172.225 361.108 171.934C361.139 171.886 361.89 170.739 363.462 170.037C363.777 169.895 364.149 170.037 364.29 170.352C364.431 170.668 364.29 171.04 363.975 171.181C362.759 171.725 362.169 172.604 362.163 172.613C362.043 172.8 361.841 172.9 361.634 172.9Z" fill="#EA5143"/>
<path d="M395.542 190.329V203.531C395.542 203.531 390.114 209.349 384.79 209.807C379.472 210.271 376.235 203.952 376.235 203.952V191.257L395.542 190.329Z" fill="#FFA681"/>
<path d="M395.542 190.329V196.186C391.969 200.151 385.624 201.141 376.234 199.755V191.257L395.542 190.329Z" fill="#F97853"/>
<path d="M409.461 156.422C409.217 161.552 408.727 167.968 407.749 173.099C407.504 174.379 407.228 175.583 406.92 176.661C404.142 186.389 397.192 203.072 377.738 196.123C369.146 193.056 365.163 183.485 363.388 173.752C362.183 167.141 362.002 160.462 362.089 155.688C362.183 150.816 364.842 146.363 369.082 143.96C380.567 137.45 392.684 139.877 400.662 142.944C406.2 145.07 409.743 150.508 409.461 156.422Z" fill="#FFA681"/>
<path d="M386.122 165.749V166.79C386.122 168.888 386.94 170.856 388.428 172.334C389.894 173.792 391.832 174.591 393.892 174.591H394.146C395.933 174.553 397.557 173.833 398.981 172.452C400.409 171.058 401.227 169.067 401.227 166.98V165.75C401.227 165.409 401.163 165.083 401.046 164.78C400.909 164.413 400.697 164.087 400.425 163.815C399.929 163.319 399.248 163.013 398.491 163.013H388.861C387.771 163.013 386.831 163.649 386.392 164.572C386.229 164.909 386.134 165.284 386.126 165.677C386.122 165.699 386.122 165.727 386.122 165.749ZM387.258 165.749C387.258 164.863 387.977 164.147 388.859 164.147H398.488C399.375 164.147 400.091 164.863 400.091 165.749V166.979C400.091 168.759 399.398 170.459 398.186 171.637C396.978 172.81 395.611 173.42 394.123 173.454H393.891C392.135 173.454 390.48 172.772 389.226 171.527C387.958 170.266 387.258 168.585 387.258 166.79V165.749Z" fill="#321212"/>
<path d="M366.836 165.749V166.79C366.836 168.888 367.658 170.856 369.142 172.334C370.608 173.792 372.546 174.591 374.606 174.591H374.863C376.647 174.553 378.274 173.833 379.695 172.452C381.123 171.058 381.945 169.067 381.945 166.98V165.75C381.945 165.731 381.945 165.716 381.94 165.697C381.936 165.327 381.853 164.97 381.71 164.648C381.286 163.683 380.324 163.013 379.207 163.013H369.574C368.73 163.013 367.973 163.399 367.469 164.001C367.226 164.296 367.041 164.641 366.942 165.015C366.87 165.249 366.836 165.495 366.836 165.749ZM367.973 165.749C367.973 164.863 368.692 164.147 369.574 164.147H379.207C380.089 164.147 380.808 164.863 380.808 165.749V166.979C380.808 168.759 380.112 170.459 378.904 171.637C377.696 172.81 376.329 173.42 374.841 173.454H374.606C372.849 173.454 371.195 172.772 369.944 171.527C368.672 170.266 367.972 168.585 367.972 166.79V165.749H367.973Z" fill="#321212"/>
<path d="M408.085 162.552C404.815 162.411 402.479 163.355 401.555 163.815C401.297 163.939 400.609 164.387 400.579 164.406L401.12 165.37C401.128 165.366 401.881 164.916 402.176 164.78C403.082 164.357 405.093 163.509 408.085 163.685V162.552Z" fill="#321212"/>
<path d="M386.881 165.791L387.253 164.717C387.187 164.694 385.592 164.146 383.84 164.146C381.975 164.146 380.775 164.718 380.724 164.743L381.22 165.765C381.229 165.76 382.253 165.281 383.84 165.281C385.394 165.282 386.866 165.786 386.881 165.791Z" fill="#321212"/>
<path d="M362.86 162.827V163.966C365.213 164.161 367.385 165.211 367.417 165.224L367.917 164.205C367.789 164.141 365.456 163.016 362.86 162.827Z" fill="#321212"/>
<path d="M375.754 167.203C375.754 168.611 375.028 169.755 374.132 169.755C373.236 169.755 372.51 168.613 372.51 167.203C372.51 165.794 373.237 164.65 374.132 164.65C375.027 164.65 375.754 165.793 375.754 167.203Z" fill="#321212"/>
<path d="M394.751 167.203C394.751 168.611 394.024 169.755 393.129 169.755C392.233 169.755 391.507 168.613 391.507 167.203C391.507 165.794 392.234 164.65 393.129 164.65C394.025 164.65 394.751 165.793 394.751 167.203Z" fill="#321212"/>
<path d="M368.854 159.367C368.854 159.367 375.607 156.698 380.806 158.945L380.372 161.358C380.372 161.358 374.741 160.101 369.227 162.157C368.883 161.045 368.415 160.511 368.854 159.367Z" fill="#321212"/>
<path d="M399.758 159.367C399.758 159.367 393.005 156.698 387.805 158.945L388.239 161.358C388.239 161.358 393.87 160.101 399.384 162.157C399.728 161.045 400.197 160.511 399.758 159.367Z" fill="#321212"/>
<path d="M384.626 177.897C385.684 177.897 386.733 177.485 386.896 177.42C387.217 177.288 387.37 176.923 387.24 176.602C387.109 176.282 386.742 176.128 386.422 176.258C385.856 176.487 384.496 176.848 383.906 176.495C383.792 176.426 383.637 176.292 383.598 175.911C383.371 173.721 383.97 166.38 383.977 166.306C384.005 165.96 383.748 165.658 383.404 165.629C383.058 165.6 382.756 165.858 382.728 166.203C382.702 166.51 382.112 173.735 382.35 176.04C382.44 176.908 382.896 177.352 383.262 177.572C383.664 177.812 384.146 177.897 384.626 177.897Z" fill="#F97853"/>
<path d="M376.852 181.081C377.364 183.659 379.067 188.404 384.808 188.404C390.561 188.404 392.174 184.068 392.729 181.081H376.852Z" fill="white"/>
<path d="M384.731 191.679C386.354 191.679 387.73 190.857 387.788 190.822C388.084 190.643 388.179 190.257 387.999 189.96C387.82 189.663 387.434 189.569 387.138 189.748C387.128 189.755 385.994 190.424 384.73 190.424C383.569 190.424 382.458 189.758 382.447 189.751C382.153 189.569 381.767 189.66 381.585 189.955C381.403 190.249 381.494 190.636 381.789 190.817C381.845 190.853 383.198 191.679 384.731 191.679Z" fill="#F97853"/>
<path d="M365.329 169.663C364.856 167.077 364.387 163.738 364.728 162.027C365.339 158.999 367.846 157.218 367.01 154.299C366.174 151.367 369.261 148.229 371.536 147.709C373.806 147.182 379.117 148.313 384.344 145.831C389.334 143.459 398.007 145.156 399.421 148.358C401.132 152.235 398.804 152.601 403.472 156.794C405.33 158.465 403.125 162.806 402.81 165.628C402.669 166.926 402.648 167.56 402.699 168.955L402.718 169.663H408.304C408.92 165.286 409.272 160.459 409.464 156.42C409.747 150.505 406.198 145.073 400.662 142.944C392.683 139.877 380.57 137.448 369.081 143.96C364.844 146.365 362.181 150.813 362.092 155.687C362.021 159.472 362.121 164.459 362.768 169.662H365.329V169.663Z" fill="#321212"/>
<path d="M405.828 172.077C405.811 170.615 405.914 169.154 406.169 167.715C406.518 165.748 407.088 163.962 409.103 163.142C410.723 162.482 412.453 162.469 413.684 164.295C416.714 168.79 413.338 182.777 405.917 179.536L405.828 172.077Z" fill="#FFA681"/>
<path d="M407.351 175.463C407.62 175.41 407.831 175.182 407.854 174.896C408.18 170.652 412.018 168.192 412.057 168.166C412.349 167.982 412.438 167.595 412.254 167.302C412.071 167.009 411.684 166.919 411.391 167.103C411.211 167.216 406.977 169.912 406.602 174.8C406.576 175.145 406.834 175.447 407.181 175.473C407.239 175.478 407.296 175.473 407.351 175.463Z" fill="#F97853"/>
<path d="M411.152 172.599C411.267 172.576 411.375 172.522 411.465 172.435C411.714 172.195 411.72 171.797 411.479 171.549C411.439 171.507 410.478 170.53 408.799 170.149C408.463 170.071 408.126 170.283 408.049 170.621C407.972 170.959 408.184 171.294 408.521 171.372C409.82 171.667 410.571 172.415 410.578 172.421C410.733 172.581 410.95 172.64 411.152 172.599Z" fill="#F97853"/>
<path d="M417.63 212.522C408.464 226.416 373.383 274.449 365.467 280.029C355.163 287.293 327.074 297.622 310.947 308.39C305.467 312.05 318.413 322.404 318.413 322.404C318.413 322.404 357.724 311.353 375.429 300.051C380.437 296.854 401.268 275.987 414.549 257.479C419.099 251.139 426.5 242.332 427.571 232.966C428.803 222.186 425.417 216.418 417.63 212.522Z" fill="#FF8282"/>
<path d="M348.1 337.585H238.816C237.419 337.585 236.287 336.453 236.287 335.056V326.348C236.287 324.951 237.419 323.819 238.816 323.819H348.1C349.497 323.819 350.629 324.951 350.629 326.348V335.056C350.628 336.453 349.497 337.585 348.1 337.585Z" fill="#6D1010"/>
<path d="M236.311 337.586L214.819 257.098C213.612 252.577 217.019 248.141 221.698 248.141H268.991C272.181 248.141 274.983 250.263 275.846 253.336L299.512 337.586H236.311Z" fill="#321212"/>
<path d="M275.849 253.336L299.318 336.893H304.722L281.253 253.336C280.384 250.263 277.587 248.138 274.395 248.138H268.991C272.183 248.137 274.98 250.263 275.849 253.336Z" fill="#6D1010"/>
<path d="M263.689 296.467C264.918 301.776 261.61 306.08 256.302 306.08C250.993 306.08 245.693 301.777 244.464 296.467C243.236 291.158 246.543 286.854 251.852 286.854C257.161 286.854 262.461 291.158 263.689 296.467Z" fill="#FFA5A5"/>
<path d="M410.238 41.1345C406.258 41.1345 403.021 37.897 403.021 33.9173C403.021 29.9377 406.258 26.7002 410.238 26.7002C414.217 26.7002 417.455 29.9377 417.455 33.9173C417.455 37.897 414.217 41.1345 410.238 41.1345ZM410.238 28.9627C407.506 28.9627 405.284 31.1848 405.284 33.9163C405.284 36.6477 407.506 38.8698 410.238 38.8698C412.969 38.8698 415.191 36.6477 415.191 33.9163C415.19 31.1848 412.968 28.9627 410.238 28.9627Z" fill="#FF8282"/>
<path d="M436.22 66.4568C432.24 66.4568 429.003 63.2193 429.003 59.2396C429.003 55.26 432.24 52.0225 436.22 52.0225C440.2 52.0225 443.437 55.26 443.437 59.2396C443.437 63.2193 440.2 66.4568 436.22 66.4568ZM436.22 54.2861C433.489 54.2861 431.267 56.5082 431.267 59.2396C431.267 61.971 433.489 64.1931 436.22 64.1931C438.952 64.1931 441.174 61.971 441.174 59.2396C441.174 56.5082 438.952 54.2861 436.22 54.2861Z" fill="#FFA9A9"/>
<path d="M445.139 89.9102C444.514 89.9102 444.007 89.403 444.007 88.7778V83.7849C444.007 83.1597 444.514 82.6526 445.139 82.6526C445.764 82.6526 446.272 83.1597 446.272 83.7849V88.7778C446.27 89.403 445.764 89.9102 445.139 89.9102Z" fill="#FF8282"/>
<path d="M445.139 98.6475C444.514 98.6475 444.007 98.1403 444.007 97.5151V92.5222C444.007 91.897 444.514 91.3899 445.139 91.3899C445.764 91.3899 446.272 91.897 446.272 92.5222V97.5151C446.27 98.1414 445.764 98.6475 445.139 98.6475Z" fill="#FF8282"/>
<path d="M452.145 91.7835H447.661C447.035 91.7835 446.528 91.2764 446.528 90.6512C446.528 90.026 447.035 89.5188 447.661 89.5188H452.145C452.771 89.5188 453.278 90.026 453.278 90.6512C453.278 91.2764 452.771 91.7835 452.145 91.7835Z" fill="#FF8282"/>
<path d="M442.614 91.7835H438.129C437.504 91.7835 436.997 91.2764 436.997 90.6512C436.997 90.026 437.504 89.5188 438.129 89.5188H442.614C443.239 89.5188 443.746 90.026 443.746 90.6512C443.746 91.2764 443.239 91.7835 442.614 91.7835Z" fill="#FF8282"/>
<path d="M405.285 61.9334C404.66 61.9334 404.152 61.4262 404.152 60.801V55.8082C404.152 55.183 404.66 54.6758 405.285 54.6758C405.91 54.6758 406.417 55.183 406.417 55.8082V60.801C406.417 61.4262 405.91 61.9334 405.285 61.9334Z" fill="#BB3232"/>
<path d="M405.285 70.6707C404.66 70.6707 404.152 70.1635 404.152 69.5383V64.5454C404.152 63.9202 404.66 63.4131 405.285 63.4131C405.91 63.4131 406.417 63.9202 406.417 64.5454V69.5383C406.417 70.1635 405.91 70.6707 405.285 70.6707Z" fill="#BB3232"/>
<path d="M412.293 63.8067H407.808C407.183 63.8067 406.676 63.2995 406.676 62.6743C406.676 62.0491 407.183 61.542 407.808 61.542H412.293C412.918 61.542 413.425 62.0491 413.425 62.6743C413.424 63.2995 412.918 63.8067 412.293 63.8067Z" fill="#BB3232"/>
<path d="M402.762 63.8067H398.277C397.652 63.8067 397.145 63.2995 397.145 62.6743C397.145 62.0491 397.652 61.542 398.277 61.542H402.762C403.387 61.542 403.894 62.0491 403.894 62.6743C403.893 63.2995 403.387 63.8067 402.762 63.8067Z" fill="#BB3232"/>
<path d="M75.2852 7.99743C75.2852 4.01777 78.5227 0.780273 82.5023 0.780273C86.482 0.780273 89.7195 4.01777 89.7195 7.99743C89.7195 11.9771 86.482 15.2146 82.5023 15.2146C78.5227 15.2157 75.2852 11.9771 75.2852 7.99743ZM77.5499 7.99743C77.5499 10.7289 79.772 12.951 82.5034 12.951C85.2348 12.951 87.4569 10.7289 87.4569 7.99743C87.4569 5.26599 85.2348 3.0439 82.5034 3.0439C79.772 3.0439 77.5499 5.26599 77.5499 7.99743Z" fill="#FF8282"/>
<path d="M46.2998 35.5073C46.2998 31.5277 49.5373 28.2891 53.517 28.2891C57.4966 28.2891 60.7341 31.5266 60.7341 35.5073C60.7341 39.4881 57.4966 42.7245 53.517 42.7245C49.5373 42.7245 46.2998 39.487 46.2998 35.5073ZM48.5634 35.5073C48.5634 38.2388 50.7855 40.4608 53.517 40.4608C56.2484 40.4608 58.4705 38.2388 58.4705 35.5073C58.4705 32.7759 56.2484 30.5538 53.517 30.5538C50.7855 30.5538 48.5634 32.7759 48.5634 35.5073Z" fill="#FFA9A9"/>
<path d="M31.2945 45.6385C31.9197 45.6385 32.4268 45.1313 32.4268 44.5061V39.5132C32.4268 38.888 31.9197 38.3809 31.2945 38.3809C30.6693 38.3809 30.1621 38.888 30.1621 39.5132V44.5061C30.1621 45.1313 30.6693 45.6385 31.2945 45.6385Z" fill="#FF8282"/>
<path d="M31.2945 54.3765C31.9197 54.3765 32.4268 53.8693 32.4268 53.2441V48.2513C32.4268 47.6261 31.9197 47.1189 31.2945 47.1189C30.6693 47.1189 30.1621 47.6261 30.1621 48.2513V53.2441C30.1621 53.8693 30.6693 54.3765 31.2945 54.3765Z" fill="#FF8282"/>
<path d="M24.2867 47.5098H28.7713C29.3965 47.5098 29.9036 47.0027 29.9036 46.3775C29.9036 45.7523 29.3965 45.2451 28.7713 45.2451H24.2867C23.6615 45.2451 23.1543 45.7523 23.1543 46.3775C23.1543 47.0027 23.6615 47.5098 24.2867 47.5098Z" fill="#FF8282"/>
<path d="M33.8179 47.5098H38.3025C38.9277 47.5098 39.4349 47.0027 39.4349 46.3775C39.4349 45.7523 38.9277 45.2451 38.3025 45.2451H33.8179C33.1927 45.2451 32.6855 45.7523 32.6855 46.3775C32.6855 47.0027 33.1927 47.5098 33.8179 47.5098Z" fill="#FF8282"/>
<path d="M57.3814 7.2576C58.0066 7.2576 58.5138 6.75044 58.5138 6.12524V1.13236C58.5138 0.507161 58.0066 0 57.3814 0C56.7562 0 56.249 0.507161 56.249 1.13236V6.12524C56.2501 6.75044 56.7573 7.2576 57.3814 7.2576Z" fill="#BB3232"/>
<path d="M57.3814 15.9949C58.0066 15.9949 58.5138 15.4877 58.5138 14.8625V9.86966C58.5138 9.24446 58.0066 8.7373 57.3814 8.7373C56.7562 8.7373 56.249 9.24446 56.249 9.86966V14.8625C56.2501 15.4877 56.7573 15.9949 57.3814 15.9949Z" fill="#BB3232"/>
<path d="M50.3745 9.13069H54.8592C55.4844 9.13069 55.9915 8.62353 55.9915 7.99833C55.9915 7.37313 55.4844 6.86597 54.8592 6.86597H50.3745C49.7493 6.86597 49.2422 7.37313 49.2422 7.99833C49.2422 8.62353 49.7493 9.13069 50.3745 9.13069Z" fill="#BB3232"/>
<path d="M59.9048 9.13045H64.3894C65.0146 9.13045 65.5218 8.62329 65.5218 7.99809C65.5218 7.37288 65.0146 6.86572 64.3894 6.86572H59.9048C59.2796 6.86572 58.7725 7.37288 58.7725 7.99809C58.7725 8.62329 59.2796 9.13045 59.9048 9.13045Z" fill="#BB3232"/>
<path d="M353.711 15.6613V37.6385C353.711 40.5437 351.354 42.9002 348.449 42.9002H308.544L296.497 47.222C295.26 47.6669 294.076 46.4503 294.55 45.2262L299.107 33.4577V15.6602C299.107 12.755 301.464 10.3984 304.371 10.3984H348.448C351.353 10.3984 353.711 12.7561 353.711 15.6613Z" fill="#FFA9A9"/>
<g opacity="0.5">
<path d="M345.298 21.8797H308.69C307.888 21.8797 307.237 21.2294 307.237 20.4271C307.237 19.6248 307.888 18.9756 308.69 18.9756H345.298C346.1 18.9756 346.751 19.6259 346.751 20.4271C346.751 21.2305 346.1 21.8797 345.298 21.8797Z" fill="#FFD8D8"/>
<path d="M345.298 27.7274H308.69C307.888 27.7274 307.237 27.077 307.237 26.2748C307.237 25.4725 307.888 24.8232 308.69 24.8232H345.298C346.1 24.8232 346.751 25.4736 346.751 26.2748C346.751 27.077 346.1 27.7274 345.298 27.7274Z" fill="#FFD8D8"/>
<path d="M345.298 33.576H308.69C307.888 33.576 307.237 32.9257 307.237 32.1245C307.237 31.3222 307.888 30.6719 308.69 30.6719H345.298C346.1 30.6719 346.751 31.3222 346.751 32.1245C346.751 32.9257 346.1 33.576 345.298 33.576Z" fill="#FFD8D8"/>
</g>
<path d="M471.419 345.805V346.591C471.419 351.121 467.745 354.795 463.211 354.795H37.5557C33.023 354.795 29.3516 351.121 29.3516 346.591V345.805C29.3516 341.274 33.023 337.601 37.5557 337.601H463.211C467.745 337.601 471.419 341.274 471.419 345.805Z" fill="#BB3232"/>
<path d="M471.419 345.805V346.197H29.3516V345.805C29.3516 341.274 33.023 337.601 37.5557 337.601H463.211C467.745 337.601 471.419 341.274 471.419 345.805Z" fill="#FF8282"/>
</svg>
