<svg width="300" height="340" viewBox="0 0 300 340" fill="none" xmlns="http://www.w3.org/2000/svg">
<path d="M40.8442 124.22C36.3473 118.075 35.3 109.565 38.1746 102.514C40.0002 98.0346 43.32 93.9509 43.4193 89.1145C43.4417 87.9999 42.8428 86.5282 41.7506 86.7444C41.299 86.8341 40.9659 87.2056 40.6728 87.5611C36.9639 92.042 33.9388 97.0865 31.7368 102.469C31.9274 93.4721 32.0266 84.0524 27.9381 76.0356C27.4065 74.9946 26.3319 73.824 25.2878 74.3476C24.4662 74.7592 24.4182 75.8962 24.487 76.8123C25.0732 84.6737 25.6593 92.5352 26.2454 100.397C24.9643 94.6523 23.6815 88.9096 22.4004 83.1652C21.4155 78.7532 20.2656 74.0466 16.9234 71.0038C16.491 70.6099 15.977 70.2319 15.3924 70.2351C13.8326 70.2431 13.6148 72.4964 13.9335 74.0241C15.7976 82.9442 17.6617 91.8642 19.5258 100.783C17.1652 94.0598 14.7423 87.22 10.4824 81.5077C9.95715 80.8031 9.27972 80.0552 8.40213 80.06C6.53644 80.0696 6.49801 82.8705 7.12258 84.6289C9.27812 90.7032 11.4337 96.7775 13.5892 102.852C10.9084 96.92 6.01278 92.0212 0.0826378 89.3371C-0.516304 93.3984 2.19975 97.0994 4.41775 100.555C8.30925 106.618 11.0413 113.423 12.425 120.493C13.1424 124.162 13.5075 127.924 14.731 131.457C15.9546 134.99 18.2046 138.377 21.6092 139.922" fill="#B65743"/>
<path d="M41.3566 118.251L70.6502 199.914C70.6502 199.914 109.578 156.375 124.6 149.23C139.621 142.082 155.719 139.02 155.719 139.02L156.995 105.779L180.043 112.746L184.703 141.08C184.703 141.08 231.999 145.164 249.631 163.793C267.264 182.423 314.545 257.306 295.312 284.134C276.079 310.961 231.277 327.068 231.277 327.068L221.95 302.566L257.358 265.424L228.175 208.488L215.727 339.673L122.282 337.649C122.282 337.649 111.244 259.252 112.946 232.071C112.946 232.071 62.0969 268.464 44.7453 256.645C29.5908 246.322 14.9776 150.793 11.5201 126.768C20.7556 121.333 31.1394 118.056 41.3566 118.251Z" fill="#6D3E77"/>
<path d="M189.77 161.676C184.972 178.968 177.151 195.72 164.722 208.869C163.987 209.647 163.016 210.478 161.979 210.213C161.08 209.98 160.598 209.032 160.233 208.179C151.23 187.149 146.147 164.455 145.266 141.597C151.446 139.837 155.72 139.02 155.72 139.02L156.997 105.779L180.045 112.746L184.705 141.08C184.705 141.08 188.588 141.418 194.531 142.332C193.316 148.839 191.487 155.488 189.77 161.676Z" fill="#B65743"/>
<path d="M113.809 255.132C113.556 255.149 112.939 250.457 112.489 242.821C112.036 235.189 111.829 224.61 112.347 212.945C112.875 201.28 114.027 190.763 115.162 183.201C116.294 175.638 117.327 171.017 117.577 171.059C117.867 171.106 117.324 175.796 116.552 183.376C115.777 190.954 114.851 201.432 114.326 213.035C113.812 224.637 113.794 235.157 113.889 242.775C113.98 250.391 114.1 255.113 113.809 255.132Z" fill="#5C3366"/>
<path d="M228.216 210.062C227.999 210.113 226.954 207.002 226.442 201.739C225.934 196.515 226.072 189.029 228.658 181.279C229.959 177.423 231.778 173.946 233.818 171.067C235.81 168.156 238.165 165.862 240.453 164.411C242.735 162.925 244.953 162.36 246.46 162.291C247.98 162.222 248.785 162.502 248.769 162.61C248.758 162.771 247.941 162.762 246.562 163.055C245.19 163.348 243.256 164.053 241.246 165.566C239.225 167.055 237.146 169.262 235.324 172.098C233.461 174.898 231.78 178.224 230.537 181.91C228.063 189.315 227.698 196.517 227.84 201.651C227.986 206.813 228.533 210.001 228.216 210.062Z" fill="#5C3366"/>
<path d="M164.722 208.869C163.987 209.647 163.016 210.479 161.978 210.213C161.08 209.981 160.598 209.033 160.233 208.179C151.229 187.15 146.148 164.458 145.266 141.601C151.447 139.839 155.718 139.019 155.718 139.019L155.73 138.742C158.071 141.953 160.885 144.682 164.478 146.406C169.902 149.01 176.463 148.815 181.974 146.403C184.644 145.236 187.063 143.574 189.188 141.58C190.67 141.767 192.484 142.019 194.529 142.332C193.315 148.839 191.487 155.487 189.77 161.675C184.972 178.969 177.15 195.72 164.722 208.869Z" fill="white"/>
<path d="M194.88 142.388C195.344 142.46 195.818 142.536 196.307 142.616C195.82 142.537 195.343 142.46 194.88 142.388Z" fill="#864296"/>
<path d="M140.088 143.173C139.476 143.37 138.853 143.577 138.224 143.788C138.853 143.575 139.475 143.37 140.088 143.173Z" fill="#864296"/>
<path d="M145.264 141.6C143.814 142.014 142.256 142.481 140.627 142.998C142.259 142.48 143.813 142.014 145.264 141.6Z" fill="#864296"/>
<path d="M137.551 144.015C136.736 144.294 135.909 144.582 135.07 144.887C135.909 144.582 136.734 144.296 137.551 144.015Z" fill="#864296"/>
<path d="M199.284 143.122C199.81 143.215 200.348 143.314 200.891 143.415C200.348 143.314 199.808 143.215 199.284 143.122Z" fill="#864296"/>
<path d="M200.889 143.415C201.138 143.461 201.379 143.505 201.631 143.553C201.379 143.503 201.138 143.46 200.889 143.415Z" fill="#864296"/>
<path d="M194.529 142.332C194.642 142.35 194.766 142.371 194.881 142.388C194.762 142.371 194.645 142.351 194.529 142.332Z" fill="#864296"/>
<path d="M196.307 142.616C196.545 142.654 196.784 142.694 197.027 142.734C196.784 142.694 196.544 142.656 196.307 142.616Z" fill="#864296"/>
<path d="M198.5 142.986C198.761 143.03 199.017 143.075 199.281 143.122C199.017 143.075 198.759 143.03 198.5 142.986Z" fill="#864296"/>
<path d="M138.223 143.788C137.998 143.864 137.776 143.939 137.548 144.016C137.777 143.939 137.998 143.864 138.223 143.788Z" fill="#864296"/>
<path d="M145.265 141.601C146.147 164.458 151.23 187.151 160.232 208.179C160.597 209.031 161.079 209.981 161.977 210.213C163.015 210.481 163.984 209.648 164.721 208.869C177.149 195.72 184.971 178.969 189.769 161.677C191.485 155.489 193.314 148.841 194.528 142.333C197.316 142.762 200.556 143.318 204.066 144.027C203.49 147.795 202.58 151.554 201.72 154.995C198.58 167.554 195.079 180.117 189.349 191.798C183.619 203.479 175.513 214.324 164.56 221.785C163.699 222.371 162.788 222.951 161.748 223.122C159.863 223.433 158.038 222.342 156.625 221.101C151.821 216.88 149.532 210.684 147.596 204.706C141.293 185.253 136.836 165.177 135.07 144.889C138.748 143.551 142.233 142.466 145.265 141.601Z" fill="#864296"/>
<path d="M222.774 84.0222C226.052 79.6983 229.1 74.902 229.67 69.5067C230.405 62.5389 226.904 55.7616 226.884 48.7552C226.868 43.3712 228.911 38.0608 228.32 32.7104C227.457 24.8889 220.263 18.2717 212.397 18.0636C212.006 10.8955 206.318 4.80841 199.649 2.14521C192.983 -0.517993 185.518 -0.313008 178.408 0.68309C171.297 1.67919 164.272 3.42637 157.099 3.72103C149.372 4.03812 141.658 2.66248 133.928 2.84664C126.198 3.03081 117.99 5.09347 112.877 10.8955C107.288 17.2388 106.86 27.5393 111.905 34.323C112.337 34.9044 112.821 35.5017 112.912 36.2207C113.047 37.2825 112.297 38.2257 111.652 39.0809C106.272 46.2025 105.819 56.6776 110.564 64.2364C110.981 64.8994 111.442 65.5624 111.6 66.3295C111.813 67.3576 111.455 68.405 111.131 69.4043C109.579 74.2102 108.78 79.4261 110.066 84.3089C111.352 89.1917 115.058 93.6517 119.986 94.7519" fill="#EDA34C"/>
<path d="M125.27 75.0141C123.664 72.5895 120.256 71.7167 117.514 72.6824C114.771 73.6481 112.753 76.18 111.962 78.9777C111.171 81.7754 111.491 84.7973 112.383 87.5662C113.801 91.9574 116.72 95.8153 120.458 98.5009C124.229 101.209 128.265 104.405 133.117 104.57" fill="#AD5040"/>
<path d="M204.127 87.3244C217.258 86.9064 221.564 102.966 212.341 110.978C207.96 114.784 200.952 115.43 196.235 112.046" fill="#EDA34C"/>
<path d="M122.716 54.5972C122.708 54.3746 122.698 54.1536 122.69 53.9326C122.243 42.2261 127.064 32.3179 136.767 25.8529C146.85 19.1348 159.546 16.6014 171.315 17.0306C184.104 17.4966 197.486 23.4539 203.244 34.8818C205.219 38.8022 206.209 43.1405 206.953 47.466C209.903 64.6014 209.264 82.347 205.088 99.2247C201.577 113.409 189.181 122.412 175.334 125.166C162.042 127.81 142.236 125.903 133.578 114.325C130.26 109.885 128.595 104.442 127.357 99.0389C124.027 84.501 123.286 69.4586 122.716 54.5972Z" fill="#B65743"/>
<path d="M166.517 89.8228C166.804 92.4395 166.13 95.154 164.62 97.3127C164.135 98.0045 163.561 98.6483 162.852 99.1063C160.679 100.506 157.666 99.8366 155.647 98.2207C153.756 96.7074 152.543 94.539 151.416 92.3867C156.657 92.5932 162.113 91.9575 166.517 89.8228Z" fill="white"/>
<path d="M169.588 74.7481C169.588 77.8709 170.594 80.4012 171.835 80.4012C173.076 80.4012 174.082 77.8693 174.082 74.7481C174.082 71.6253 173.076 69.095 171.835 69.095C170.594 69.095 169.588 71.6253 169.588 74.7481Z" fill="#7C342C"/>
<path d="M137.59 75.166C137.59 78.2888 138.596 80.8191 139.837 80.8191C141.078 80.8191 142.084 78.2872 142.084 75.166C142.084 72.0432 141.078 69.5129 139.837 69.5129C138.596 69.5129 137.59 72.0432 137.59 75.166Z" fill="#7C342C"/>
<path d="M163.659 50.288C163.004 52.9 166.734 56.0837 171.988 57.4C177.242 58.7164 182.032 57.6675 182.687 55.0571C183.342 52.4452 179.612 49.2615 174.358 47.9451C169.104 46.6271 164.314 47.6761 163.659 50.288Z" fill="#7C342C"/>
<path d="M128.993 58.3528C130.071 60.819 134.795 61.1361 139.544 59.0607C144.292 56.9852 147.267 53.3035 146.19 50.8372C145.112 48.371 140.388 48.0539 135.639 50.1294C130.891 52.2033 127.915 55.8866 128.993 58.3528Z" fill="#7C342C"/>
<path d="M209.542 72.0196C193.95 65.8028 179.805 58.2952 174.208 41.4352C166.322 40.0596 158.904 36.1216 153.346 30.3612C150.564 27.4786 148.168 23.9634 147.752 19.9791C147.336 15.9947 149.421 11.5587 153.227 10.3127C154.718 9.8243 156.321 9.84832 157.889 9.88355C167.861 10.1061 181.253 8.6088 189.96 14.4765C192.306 16.0571 193.891 18.5378 195.975 20.4243C199.418 23.5423 203.204 25.8628 205.705 29.9256C208.277 34.1022 209.201 39.0554 210.071 43.8822C211.754 53.2314 213.323 63.2901 209.291 71.8915C209.049 72.4071 208.628 72.9996 208.069 72.8891" fill="#EDA34C"/>
<path d="M202.913 77.3714C205.315 73.6448 209.199 70.9031 213.513 69.8878C215.981 69.3065 219.507 69.7693 221.747 70.956C224.782 72.5622 226.869 75.685 227.59 79.0417C228.31 82.3983 227.751 85.9503 226.416 89.1116C222.78 97.7161 213.007 103.272 203.754 101.994" fill="#B65743"/>
<path d="M153.68 55.2267C156.864 58.3576 158.046 63.6263 156.882 67.8894C156.348 69.8415 154.873 71.515 153.661 73.0796C150.328 77.3763 148.605 83.1527 154.838 86.0481C155.841 86.5142 154.969 87.9923 153.972 87.5295C149.834 85.6077 147.93 81.4392 149.193 77.0496C149.928 74.4969 152.173 72.2805 153.708 70.1938C156.654 66.1886 156.012 59.927 152.468 56.4406C151.677 55.6639 152.891 54.4516 153.68 55.2267Z" fill="#9B4537"/>
<path d="M221.292 78.4494C209.961 74.7293 204.347 87.3198 203.524 96.3327C203.425 97.4249 201.708 97.4345 201.809 96.3327C202.341 90.5051 203.801 84.9337 207.821 80.5169C211.285 76.7087 216.909 75.2065 221.75 76.7951C222.795 77.1394 222.346 78.7969 221.292 78.4494Z" fill="#9B4537"/>
<path d="M210.602 79.1618C215.959 83.9966 214.084 92.3097 207.317 94.5869C206.265 94.9409 205.819 93.2834 206.861 92.9327C212.484 91.0397 213.728 84.2929 209.388 80.3757C208.567 79.6327 209.784 78.4236 210.602 79.1618Z" fill="#9B4537"/>
<path d="M233.641 322.894C230.46 326.399 226.239 328.947 221.657 330.132C218.635 330.912 215.285 331.071 212.522 329.62C209.883 328.233 208.154 325.592 206.794 322.939C203.702 316.909 201.663 309.936 196.365 305.71C194.982 304.607 193.411 303.728 192.166 302.469C191.441 301.735 189.153 298.512 190.776 297.701C191.87 297.155 194.26 298.931 195.161 299.396C198.884 301.313 203.513 304.051 205.46 307.987C203.804 304.64 201.868 301.434 199.679 298.411C197.575 295.506 195.119 293.065 193.781 289.673C193.696 289.459 193.614 289.223 193.677 289.001C193.819 288.498 194.514 288.461 195.028 288.56C196.801 288.903 198.555 289.593 200.052 290.61C201.207 291.395 202.03 292.614 203.075 293.554C205.718 295.927 207.912 298.774 209.829 301.753C209.321 297.05 206.78 292.639 203.658 289.159C202.85 288.258 201.798 287.444 201.085 286.471C200.398 285.53 199.978 284.331 199.415 283.311C199.237 282.989 199.056 282.654 199.027 282.288C198.992 281.834 199.218 281.37 199.597 281.118C200.822 280.3 203.666 282.826 204.595 283.589C206.322 285.01 207.793 286.73 209.03 288.586C211.765 292.694 213.49 297.383 215.882 301.699C216.124 296.268 213.072 291.324 211.142 286.243C210.705 285.092 210.591 283.365 211.781 283.048C212.487 282.861 213.177 283.368 213.691 283.887C219.29 289.545 218.304 298.023 219.625 305.203C219.689 305.552 219.767 305.926 220.028 306.167C220.475 306.583 221.196 306.397 221.753 306.146C223.91 305.174 226.131 303.527 228.393 304.222" fill="#B65743"/>
<path d="M235.625 223.021C240.308 214.838 248.477 208.565 255.39 201.584C260.289 196.636 264.224 191.553 266.022 185.341C286.05 215.445 309.955 263.711 295.311 284.134C276.078 310.962 231.276 327.069 231.276 327.069L221.949 302.567L257.357 265.424L235.625 223.021Z" fill="#6D3E77"/>
</svg>
