<svg width="1440" height="881" viewBox="0 0 1440 881" fill="none" xmlns="http://www.w3.org/2000/svg">
<path d="M358.5 646.363C202.5 562.596 54 600.408 0 649.854V957H1440V646.363C1330.5 523.33 1211.05 691.737 1085.5 691.737C951.16 691.737 906.34 622.804 772 622.804C609.542 622.804 513.774 729.74 358.5 646.363Z" fill="#FF5353"/>
<path d="M358.5 679.363C202.5 595.596 54 633.408 0 682.854V990H1440V679.363C1330.5 556.33 1211.05 724.737 1085.5 724.737C951.16 724.737 906.34 655.804 772 655.804C609.542 655.804 513.774 762.74 358.5 679.363Z" fill="#FF6C6C"/>
<path d="M358.5 712.363C202.5 628.596 54 666.408 0 715.854V1023H1440V712.363C1330.5 589.33 1211.05 757.737 1085.5 757.737C951.16 757.737 906.34 688.804 772 688.804C609.542 688.804 513.774 795.74 358.5 712.363Z" fill="#FF8282"/>
<path d="M358.5 214.637C202.5 298.404 54 260.592 0 211.146V-96H1440V214.637C1330.5 337.67 1211.05 169.263 1085.5 169.263C951.16 169.263 906.34 238.196 772 238.196C609.542 238.196 513.774 131.26 358.5 214.637Z" fill="#FF5353"/>
<path d="M358.5 181.637C202.5 265.404 54 227.592 0 178.146V-129H1440V181.637C1330.5 304.67 1211.05 136.263 1085.5 136.263C951.16 136.263 906.34 205.196 772 205.196C609.542 205.196 513.774 98.2596 358.5 181.637Z" fill="#FF6C6C"/>
<path d="M358.5 148.637C202.5 232.404 54 194.592 0 145.146V-162H1440V148.637C1330.5 271.67 1211.05 103.263 1085.5 103.263C951.16 103.263 906.34 172.196 772 172.196C609.542 172.196 513.774 65.2596 358.5 148.637Z" fill="#FF8282"/>
</svg>
